<?xml version="1.0" encoding="UTF-8"?>
<!DOCTYPE svg PUBLIC "-//W3C//DTD SVG 1.1//EN" "http://www.w3.org/Graphics/SVG/1.1/DTD/svg11.dtd">
<!-- Creator: CorelDRAW -->
<svg xmlns="http://www.w3.org/2000/svg" xml:space="preserve" width="39.3701in" height="39.3701in" version="1.1" style="shape-rendering:geometricPrecision; text-rendering:geometricPrecision; image-rendering:optimizeQuality; fill-rule:evenodd; clip-rule:evenodd"
viewBox="0 0 39370.08 39370.08"
 xmlns:xlink="http://www.w3.org/1999/xlink"
 xmlns:xodm="http://www.corel.com/coreldraw/odm/2003">
 <defs>
  <style type="text/css">
   <![CDATA[
    .str0 {stroke:#01A810;stroke-width:7.87;stroke-miterlimit:22.9256}
    .str1 {stroke:#664F02;stroke-width:7.87;stroke-miterlimit:22.9256}
    .fil4 {fill:none}
    .fil2 {fill:#FEFEFE}
    .fil1 {fill:#007206}
    .fil0 {fill:#01A810}
    .fil5 {fill:#664F02}
    .fil3 {fill:#005C9F;fill-rule:nonzero}
   ]]>
  </style>
 </defs>
 <g id="Слой_x0020_1">
  <metadata id="CorelCorpID_0Corel-Layer"/>
  <g id="_2343249922960">
   <path class="fil0" d="M12276.13 13342.35l336.94 -451.25c-5.06,-310.69 -7.29,-515.09 111.14,-740.38 129.83,-247.02 105.44,-409.31 303.46,-586.48 399.86,-357.79 914.55,33.64 1340.63,58.47 86.21,-596.17 -64.95,-1112.06 511.48,-1266.26 804.15,-215.1 537.19,-367.27 852.94,-950.58 946.23,-143.63 729.14,-267.02 1184.88,-508.44 213.11,-112.86 516.74,-38.73 676.98,60.26 243.17,150.25 266.05,271.95 263.75,595.69l-0.13 64.92 335.86 255.18 -0.04 -29.66c367.1,-11.47 728.87,76.56 1001.3,-130.51 318.68,-242.23 288.11,-358.57 821.93,-332.52 149.71,210.24 451.76,409.41 591.48,589.79 492.58,-32.19 647.18,-371.18 1177.83,-288.96 192.86,158.79 223.8,308.63 575.72,271.69 269.15,-28.28 450.91,-127.2 753.91,-113.71 178.08,169.61 386.97,398.65 616.88,510.77 341.73,166.61 598.23,47.65 852.36,303.5 285.08,287 656.02,1161.46 661.63,1654.72l605.14 693.2 3.58 2.03c3.94,5.87 7.49,10.59 10.66,14.27l0.61 0.71 0.04 0 23.99 6.51c5.16,-9.18 3.14,-25.34 5.43,1.48l340.04 92.18 103.08 50.91c144.58,82.56 354.38,356.91 507.33,499.03 190.4,176.94 480.61,163.2 652.82,366.53 381.14,449.87 -124.94,1254.08 8.91,1811.51 900.37,330.16 1701.21,-501.22 2264.18,435.16 274.11,455.77 791.56,1451.77 842.91,2037l42.85 180.65 110.87 612.67 -0.07 0.17c68.67,379.85 -100.17,1028.35 -196.74,1223.17 -48.42,97.65 -163.34,182.67 -331.64,256.6l-0.07 0.2 -820.54 973.12c24.22,506.59 -7.59,1132.01 -276.78,1450.96 -482.9,94.54 -1018.81,-394.13 -1872.59,-217.76 -645.73,133.38 -721.68,783.06 -1155.32,1056.93 -359.54,227.11 -538.78,23.85 -879.96,-21.46 -324.59,-43.09 -648.83,85.57 -1049.37,24.87 -635.17,-96.3 -994.48,-477.84 -1469.11,-732.18 -417.51,102.84 -933.44,1006.15 -1152.62,1445.59 -543.36,1089.59 -794.06,3392.78 -604.6,4600.94 189.79,1210.59 635.74,1551.67 751.31,1928.73l-3998.9 -17.92c84.66,-629.77 1004.17,-581.72 707.11,-3802.96 -63.77,-691.56 -196.78,-1327.67 -419.47,-1880.55 -114.15,-283.53 -231.06,-515.53 -398.75,-758.83 -192.9,-279.85 -374.76,-441.6 -547.35,-642.29 -1508.32,-96.16 -1340.96,406.78 -1731.11,341.15 -182,-30.63 -397.67,-390.15 -497.17,-555.04 -170.8,-282.88 -263.75,-365.35 -443.56,-542.65 -114.28,-8.1 -266.18,-15.83 -399.69,-21.96 -215.94,166.17 -299.05,569.95 -443.02,813.42 -1215.38,40.32 -669.05,-564.52 -1558.19,-364.74 -579.23,130.1 -917.35,538.64 -1540.64,526.8 -298.61,-171.24 -552.88,-498.76 -931.76,-724.42 -320.64,-191.04 -510.83,-675.49 -479.89,-1142.83l-12.11 -380.09 -8.94 0c-11.88,-186.93 42.65,-497.14 106.42,-649.89 185.57,-444.57 1073.06,-572.61 1191.09,-1234.85 -820.07,-67.79 -552.78,-239.9 -982.33,-487.76 -133.28,-76.89 -272.46,-55.23 -416.06,-119.68 -210.85,-94.57 -269.22,-433.27 -247.32,-732.31 25.54,-348.31 253.09,-326.61 406.95,-617.63 -5,-394.3 -212.06,-512.29 -217.83,-930.47 -7.42,-538.07 243,-424.39 385.02,-763.86 339.09,-810.66 -53.65,-690.61 622.65,-1108.25 177.2,-109.42 140.77,-145.52 273.87,-301.1l49.83 -349.15c-97.37,-811.23 9.18,-1095.77 571.84,-1421.17 541.27,-313.05 988.27,22.04 1524.07,109.05z"/>
   <path class="fil1" d="M20411.12 10499.99c354.64,92.55 201.75,290.37 579.89,249.7 281.73,-30.31 100.25,-379.89 504.11,-398.72 450.07,-21.06 176.81,267.13 776.5,450.23 761.12,232.42 684.37,82.56 865.13,465.99 928.57,1969.8 -437.61,2222.57 1149.17,2249.13 423.8,7.06 484.41,7.06 707.3,271.2 165.63,196.29 265.97,397.31 423.9,561.35 83.76,87 490.34,242.26 646.75,328.64 43.29,802.73 -165.78,553.98 -316.75,916.37 -500.13,801.16 817.6,897.48 1752.77,784.52 504.3,-60.93 1122.46,391.55 1263.18,1115.45 57.78,367.07 220.94,767.61 289.26,1101.49 87.42,427.67 -1.31,361.81 70.13,813.72 69.74,440.75 82.76,520.22 -241,910.15 -356.63,77.25 -512.62,-187.72 -847.86,40.1 -824.72,560.42 -36.58,1846.15 -562.92,2121.08 -266.71,139.23 -720.09,-398.31 -1585.96,-201.64 -865.87,196.66 -810.42,1199.52 -2057.89,623.02 -16.39,-4.76 -1143.46,-547.12 -1192.81,-770.96 -110.87,-502.16 170.44,-410.71 428.5,-834.97 289.85,-476.42 -779.07,-389.52 -395.1,-1484.87 257.39,-734.1 396.69,-1332.43 -677.06,-1220.41 -207.92,21.73 -464.41,81.81 -652.7,142.18 -202.75,64.86 -288.18,151.48 -471.8,206.56 -238.17,71.35 -512.1,-34.07 -748.19,-125.89 -591.04,-229.85 -614.29,-948.04 -275.65,-1617.71 231.42,-457.57 752.05,-165.89 918.68,-606.07 370.03,-977.35 -71.77,-1460.27 -1036.35,-1403.89 -216.88,12.61 -264.57,23.71 -400.56,151.91 -312.25,294.5 -459.39,841.15 -838.59,289.42 -66.43,-96.53 -128.46,-223 -167.66,-340.57 -176.88,-531.06 -259.18,-950.97 46.01,-1386.96 125.74,-179.65 402.44,-423.43 294.61,-787.77 -113.07,-382.02 -262.57,-304.6 -396,-980.08 -74.75,-378.42 -88.47,-1005.06 56.31,-1335.31 187.1,-426.89 657.38,-510.91 1019.5,-237.81 772.9,582.77 376.22,-240.48 1073.16,-58.59z"/>
   <path class="fil2" d="M13282.04 17879.35c-130.31,144.31 -217.02,308.36 -523.22,247.66 -458.03,-90.9 -433.1,-805.26 46.66,-862.31 257.48,-30.63 353.27,123.02 476.56,265.51l4077.41 -17.65c282.58,-444.77 858.23,-282.81 849.12,180.72 -4.15,208.52 -324.96,760.42 -849.12,175.72l-4077.41 10.36zm-778.47 -4889.66l7.52 354.55 3430.13 0.34c165.73,53.11 101.36,59.05 210.14,149.24 254.51,210.85 702.79,65.73 709.54,-321.62 8.3,-474.33 -603.59,-651 -848.89,-163.34l-3508.44 -19.17zm-2525.98 1781.82l7.63 349.25 2720.63 -12.18c590.73,858.54 1283.87,-496.67 481.55,-602.14 -263.52,-34.58 -363.35,106.76 -481.55,251.1l-2728.26 13.97zm-1129.74 7295.19l25.74 335.45 2591.33 -2.83c191.75,72.88 198.13,271.31 487.66,269.39 551.53,-3.61 569.55,-820.07 43.36,-864.04 -297.39,-24.87 -351.88,188.14 -531.02,265.07l-2617.07 -3.04zm4965.34 1233.77l357.01 6.81 -21.63 -2689.42c147.35,-192.76 308.39,-199.88 255.52,-532.09 -76.43,-480.4 -819.53,-453.75 -857.93,44.27 -24.97,324.28 190.09,310.31 268.71,532.16l-1.69 2638.27zm15440.63 -2223.29c-2427.39,0 -7338.07,31.92 -7707.66,28.91 -0.1,-340.38 -5.74,-662.63 -21.9,-1161.22 468.73,-119.95 387.72,-919.1 -228.83,-788.15 -393.42,83.54 -379.93,547.11 -53.48,803.44l7.56 1164.91 -1610.45 6.85 -9.82 -5001.92 -2356.5 19.17c-272.86,-503.11 -853.98,-245.2 -844.3,181.53 5.06,223.43 177.07,385.76 355.56,411.81 325.7,47.64 363.29,-135.67 531.11,-262.24l1964.16 1.82 8.91 4634.95 -2992.41 14.81c-208.69,-78.65 -166.78,-296.68 -532.97,-267.63 -503.65,39.88 -515.09,777.35 -39.55,858.47 361.47,61.61 347.6,-179.81 572.52,-262.78l2990.56 3.04 2.16 1344.2 -1352.84 16.06c-334.04,-438.13 -838.7,-298.88 -849.76,143.8 -5.46,219.18 123.02,397.84 321.96,440.35 307.21,65.69 411.23,-88.67 527.81,-244.62l1343.33 -5.33 10.39 1404.94c-129.39,120.76 -290.98,206.7 -264.87,489.01 72.65,785.62 1459.26,188.07 595.19,-473.89l1.35 -3104.83 9632.98 -11.5c0,-236.56 -0.2,-114.55 -0.2,-383.94zm1205.46 -2144.57l-4.89 -315.48 -4009.29 7.83c-291.25,-441.91 -813.73,-288.31 -835.29,133.92 -23.04,451.86 520.05,660.55 835.22,200.29 377.02,-1.25 3965.53,-26.56 4014.25,-26.56zm-4395.12 -5751.17l-327.73 -3.34c0,801.55 -1.04,2112.04 -1.52,2963.46 -81.31,205.24 -274.45,212.57 -235.14,532.5 96.37,785.25 1468.84,118.16 563.78,-500.48l0.61 -2992.14zm-1011.25 -428.44l-11.24 -326.61 -2878.54 13.8c-227.48,-464.58 -859.28,-282.01 -821.46,200.02 34.76,442.85 583.38,551.36 829.11,125.41 500.07,-6.38 2320.39,-12.62 2882.11,-12.62zm-7031.23 -3041.2l-335.85 0c-0.37,501.09 29.89,3243.44 -17.75,3327.32 -141.88,115.16 -279.81,228.96 -246.85,476.62 25.74,193.5 189.79,364.13 425.88,368.89 468.43,9.41 626.8,-579.13 176.94,-841.7l-2.36 -3331.13zm-1584.84 3263.39c97.85,0 177.14,79.29 177.14,177.14 0,97.85 -79.29,177.14 -177.14,177.14 -97.85,0 -177.14,-79.29 -177.14,-177.14 0,-97.85 79.29,-177.14 177.14,-177.14zm1418.7 301.84c97.85,0 177.14,79.29 177.14,177.14 0,97.85 -79.29,177.14 -177.14,177.14 -97.85,0 -177.14,-79.29 -177.14,-177.14 0,-97.85 79.29,-177.14 177.14,-177.14zm3896.63 -859.24c97.85,0 177.14,79.29 177.14,177.14 0,97.85 -79.29,177.14 -177.14,177.14 -97.85,0 -177.14,-79.29 -177.14,-177.14 0,-97.85 79.29,-177.14 177.14,-177.14zm4279.52 6192.73c97.85,0 177.14,79.29 177.14,177.14 0,97.85 -79.29,177.14 -177.14,177.14 -97.85,0 -177.14,-79.29 -177.14,-177.14 0,-97.85 79.29,-177.14 177.14,-177.14zm-6578.56 6205.93c97.85,0 177.14,79.29 177.14,177.14 0,97.85 -79.29,177.14 -177.14,177.14 -97.85,0 -177.14,-79.29 -177.14,-177.14 0,-97.85 79.29,-177.14 177.14,-177.14zm-1935.85 -2003.16c97.85,0 177.14,79.29 177.14,177.14 0,97.85 -79.29,177.14 -177.14,177.14 -97.85,0 -177.14,-79.29 -177.14,-177.14 0,-97.85 79.29,-177.14 177.14,-177.14zm-1711.94 -1697.57c97.85,0 177.14,79.29 177.14,177.14 0,97.85 -79.29,177.14 -177.14,177.14 -97.85,0 -177.14,-79.29 -177.14,-177.14 0,-97.85 79.29,-177.14 177.14,-177.14zm-3860.19 946.36c97.85,0 177.14,79.29 177.14,177.14 0,97.85 -79.29,177.14 -177.14,177.14 -97.85,0 -177.14,-79.29 -177.14,-177.14 0,-97.85 79.29,-177.14 177.14,-177.14zm2034.24 -2063.59c97.85,0 177.14,79.29 177.14,177.14 0,97.85 -79.29,177.14 -177.14,177.14 -97.85,0 -177.14,-79.29 -177.14,-177.14 0,-97.85 79.29,-177.14 177.14,-177.14zm2751.91 -3809.65l-3.57 10.97c-26.02,30.84 -41.67,70.65 -41.67,114.15 0,97.85 79.29,177.14 177.14,177.14 97.85,0 177.14,-79.29 177.14,-177.14 0,-57.76 -27.67,-109.09 -70.45,-141.41l-10.93 -17.17 -13.02 1.92c-24.7,-13.06 -52.84,-20.48 -82.73,-20.48 -48.42,0 -92.28,19.44 -124.27,50.92l-7.63 1.11zm-3776.68 -1312.21c-16.13,33.37 -19.7,71.22 -8,105.41 18.09,78.61 88.54,137.22 172.65,137.22 97.85,0 177.14,-79.29 177.14,-177.14 0,-97.85 -79.29,-177.14 -177.14,-177.14 -74.7,0 -138.61,46.22 -164.65,111.65zm8309.9 4729.02c51.25,165.57 391.53,127.88 301.68,-121.5 -63.23,-175.52 -371.05,-102.7 -301.68,121.5zm4496.07 -2976.58c24.46,204.3 346.59,184.8 328.53,-41 -16.33,-204.78 -358.29,-208.31 -328.53,41zm-7974.19 889c97.85,0 177.14,79.29 177.14,177.14 0,97.85 -79.29,177.14 -177.14,177.14 -97.85,0 -177.14,-79.29 -177.14,-177.14 0,-97.85 79.29,-177.14 177.14,-177.14zm-4940 0c97.85,0 177.14,79.29 177.14,177.14 0,97.85 -79.29,177.14 -177.14,177.14 -97.85,0 -177.14,-79.29 -177.14,-177.14 0,-97.85 79.29,-177.14 177.14,-177.14z"/>
   <path class="fil1" d="M19683.39 1608.67c9984.23,0 18078.02,8093.79 18078.02,18078.02 0,9984.2 -8093.79,18077.99 -18078.02,18077.99 -9984.2,0 -18077.99,-8093.79 -18077.99,-18077.99 0,-9984.23 8093.79,-18078.02 18077.99,-18078.02zm0 1761.4c9011.44,0 16316.62,7305.18 16316.62,16316.62 0,9011.41 -7305.18,16316.58 -16316.62,16316.58 -9011.41,0 -16316.58,-7305.18 -16316.58,-16316.58 0,-9011.44 7305.18,-16316.62 16316.58,-16316.62z"/>
   <path class="fil3" d="M15258.95 33342.73l-1.45 200.66 424.46 129.46 110.74 -167.35 353.4 107.77 -809.65 1146.85 -397.13 -121.09 -31.95 -1403.48 351.58 107.19zm253.63 585.07l-256.83 -78.31 -2.9 472.98 259.74 -394.67zm-1963.82 195.06l125.89 -304.48 304.48 125.85 383.43 -927.54 315.04 130.24 -383.4 927.54 304.48 125.85 -125.85 304.51 -924.06 -381.98zm-235.17 -1572.73l27.02 488.37 110.27 51.86 183.21 -389.44 308.49 145.12 -567.49 1206.3 -482.53 -227.01c-122.92,-57.8 -207.51,-145.66 -253.76,-263.55 -46.33,-117.89 -41.06,-237.17 15.69,-357.79 34.01,-72.37 83.61,-130.07 148.8,-173.09 65.12,-42.99 137.67,-67.45 217.59,-73.35l-38.19 -563.1 330.9 155.68zm-113.2 1072.76l127.27 -270.57 -170.59 -80.27c-37.39,-19 -74.06,-21.53 -110.1,-7.59 -36,13.94 -63.46,41 -82.36,81.22 -18.93,40.19 -22.27,78.61 -10.06,115.26 12.22,36.64 37.28,63.87 75.21,81.69l170.63 80.27zm-1378.15 -1712.79c184.59,-46.29 361.03,-19.54 529.22,80.17 168.2,99.7 276.27,241.65 324.25,425.81 48.05,184.19 22.2,360.39 -77.5,528.55 -99.74,168.2 -241.93,275.46 -426.56,321.72 -184.59,46.26 -360.99,19.5 -529.19,-80.2 -168.2,-99.7 -276.3,-241.62 -324.32,-425.81 -48.01,-184.19 -22.13,-360.39 77.61,-528.55 99.7,-168.2 241.85,-275.43 426.48,-321.69zm528.45 585.61c-24.33,-93.36 -80.74,-166.31 -169.21,-218.74 -88.43,-52.47 -179.5,-66.94 -273.1,-43.46 -93.63,23.45 -167.29,80.5 -221.04,171.13 -53.75,90.66 -68.46,182.7 -44.1,276.07 24.33,93.39 80.71,166.34 169.18,218.78 88.47,52.43 179.54,66.94 273.13,43.46 93.6,-23.45 167.29,-80.5 221.04,-171.17 53.75,-90.66 68.43,-182.67 44.1,-276.07zm-1994.49 -606.46l386.06 281.87 128.05 -175.35 -378.37 -276.27 194.25 -266.04 378.37 276.24 269.56 -369.16 275.33 201.06 -786.13 1076.67 -661.39 -482.9 194.28 -266.11zm165.84 -609.87l-188.85 234.23 -578.25 -466.2 188.88 -234.23 578.22 466.2zm-2374.18 -933.68l932.73 -952.5 242.19 237.17 -502.33 513 605.72 -155.85 24.5 23.99 -143.13 606.19 501.02 -511.65 243.57 238.52 -932.73 952.5 -243.57 -238.52 156.22 -644.04 -641.99 168.37 -242.19 -237.17zm150.65 -1740.93c128.42,20.62 242.46,90.22 342.1,208.82 99.64,118.6 148.53,242.93 146.67,373 -1.82,130.07 -56.69,240.41 -164.62,331.07l-685.38 575.76 -219.28 -261.06 660.58 -554.9c85.57,-71.87 88.3,-155.44 8.3,-250.69 -80.03,-95.29 -162.83,-107 -248.4,-35.13l-660.54 554.9 -219.28 -260.98 685.38 -575.76c107.91,-90.66 226.07,-125.69 354.48,-105.04zm-1640.21 -173.02l-191.51 -279.71 1100.02 -753.13 191.51 279.71 -422.7 289.43 211.93 309.54 422.7 -289.39 192.59 281.3 -1099.98 753.13 -192.59 -281.3 406.98 -278.67 -211.93 -309.54 -407.02 278.63zm-332.69 -518.8l-178.42 -290.51 1135.99 -697.69 178.42 290.51 -1135.99 697.69zm-752.46 -1333l289.03 -158.21 158.21 288.99 880.37 -481.99 163.71 299.05 -880.37 481.99 158.24 288.99 -289.02 158.24 -480.17 -877.06zm827.6 -1454.13l-1059.83 916.1 -145.56 -343.72 744.36 -596.41 -947.04 117.62 -145.52 -343.75 1395.42 -123.39 158.18 373.54zm-546.5 -1585.38l-166.95 111.31 130.88 424.02 200.66 -2.16 108.95 353.03 -1403.59 -27.16 -122.44 -396.72 1144.12 -813.53 108.38 351.21zm-342.13 538.1l-79.19 -256.57 -393.25 262.88 472.44 -6.31zm-1354.73 -2043.82l323.04 -64.88 64.88 323 983.98 -197.62 67.15 334.24 -984.02 197.65 64.89 323 -323 64.88 -196.91 -980.27zm1226.34 -1101.4l-185.88 75.54 43.12 441.67 197.01 38.16 35.9 367.71 -1369.57 -308.26 -40.35 -413.19 1284.04 -567.49 35.73 365.85zm-443.15 458.5l-26.12 -267.23 -437.96 178.62 464.07 88.61zm-318.52 -1730.13c60.7,-114.72 157.61,-175.25 290.78,-181.53 117.96,-5.6 214.35,30.5 289.19,108.34 74.87,77.81 115.5,184.56 121.94,320.27l26.52 561.18 -1331.65 63 -24.83 -525.04c-6.28,-133.17 22.61,-241.31 86.68,-324.45 64.07,-83.07 154.46,-127.41 271.14,-132.94 111.58,-5.26 201.67,31.78 270.23,111.18zm-323.2 341.32l8.27 175.02 209.26 -9.92 -8.26 -175.01c-1.45,-30.43 -11.88,-55.67 -31.21,-75.75 -19.4,-20.04 -45.58,-29.29 -78.55,-27.74 -31.72,1.52 -56.62,12.85 -74.67,34.04 -18.05,21.19 -26.35,47.68 -24.83,79.36zm721.18 -70.35c-1.62,-34.21 -13.4,-61.65 -35.33,-82.23 -21.97,-20.55 -49.43,-30.06 -82.4,-28.48 -34.25,1.62 -61,13.67 -80.27,36.17 -19.27,22.54 -28.07,50.92 -26.45,85.16l9.98 211.15 224.44 -10.63 -9.98 -211.15zm-1023.4 -678.26l17.78 -340.44 1331.31 69.57 -17.78 340.45 -1331.31 -69.57zm1433.15 -1289.81l-197.15 37.35 -44.94 441.46 185.57 76.32 -37.45 367.57 -1281.68 -572.72 42.04 -413.06 1370.86 -302.62 -37.25 365.69zm-525.01 361.94l27.23 -267.13 -464.65 88.57 437.42 178.56zm-568.67 -1891.07l322.93 65.22 -65.19 322.93 983.81 198.63 -67.48 334.17 -983.82 -198.6 -65.19 322.93 -322.97 -65.19 197.89 -980.11zm216.11 -897.78l83.14 -328.67 1292.41 326.95 -64.44 254.78 -765.24 291.66 649.89 164.38 -83.61 330.53 -1292.41 -326.95 64.92 -256.63 765.24 -291.66 -649.88 -164.38zm189.52 -651.94l114.99 -320.94 1255.02 449.67 -114.99 320.94 -1255.02 -449.67zm940.36 -2282l1206.27 567.56 -144.31 306.74 -649.65 -305.66 346.39 520.76 -14.61 31.01 -619.52 64.24 647.96 304.85 -145.15 308.46 -1206.27 -567.52 145.12 -308.49 659.6 -64.31 -370.17 -550.89 144.35 -306.74zm1665.52 -445.11c22.98,128.01 -4.99,258.66 -84.02,391.93 -78.95,133.21 -180.14,220.46 -303.5,261.73 -123.35,41.26 -245.67,25.94 -366.9,-45.92l-769.96 -456.45 173.87 -293.28 742.09 439.95c96.13,56.99 175.89,31.95 239.36,-75.04 63.43,-107.06 47.14,-189.05 -48.99,-246.04l-742.09 -439.95 173.83 -293.24 769.97 456.48c121.23,71.87 193.33,171.81 216.35,299.82zm-406.51 -1618.85l199.92 -273.81 1076.67 786.16 -199.91 273.78 -413.73 -302.08 -221.24 302.99 413.76 302.08 -201.06 275.32 -1076.67 -786.13 201.03 -275.33 398.38 290.85 221.24 -302.99 -398.38 -290.85zm2012.07 -644.93c10.29,190.03 -49.53,358.16 -179.43,504.29 -129.9,146.13 -289.83,225.26 -479.76,237.3 -189.96,12.08 -357.99,-46.8 -504.12,-176.7 -146.17,-129.9 -224.37,-289.9 -234.63,-479.96 -10.32,-190.06 49.53,-358.13 179.43,-504.26 129.91,-146.13 289.8,-225.29 479.73,-237.37 189.96,-12.08 358.02,46.87 504.16,176.77 146.13,129.9 224.34,289.87 234.63,479.93zm-675.53 407.35c96.33,-6.14 178.66,-47.61 246.98,-124.47 68.33,-76.9 99.87,-163.51 94.64,-259.87 -5.19,-96.36 -47.2,-179.57 -125.95,-249.55 -78.78,-70.05 -166.31,-102 -262.64,-95.86 -96.3,6.11 -178.63,47.61 -246.95,124.47 -68.33,76.86 -99.87,163.47 -94.65,259.84 5.2,96.36 47.17,179.57 125.96,249.58 78.78,70.01 166.31,101.96 262.6,95.86zm906.69 -1843.63l-334.41 341.56 155.14 151.9 327.76 -334.74 235.37 230.48 -327.76 334.74 326.61 319.8 -238.52 243.57 -952.54 -932.7 572.92 -585.14 235.41 230.52zm1422.92 105.24l-167.46 -110.54 -339.8 285.42 80 184.02 -282.92 237.64 -520.62 -1303.71 317.91 -267.06 1194.33 737.81 -281.43 236.42zm-628.8 -106.05l205.62 -172.69 -395.07 -260.11 189.45 432.79zm1126.81 -694.25l400.7 -274.35 186.11 271.85 -765.28 524 -148.46 -216.85 -30.4 -877.06 -380.3 260.38 -186.15 -271.88 744.87 -509.96 148.46 216.85 30.43 877.03zm1412.12 -521.36l-149.37 -134.02 -378.13 232.24 52 193.81 -314.8 193.37 -322.87 -1366.23 353.81 -217.29 1072.59 905.74 -313.22 192.39zm-606.32 -197.56l228.8 -140.53 -352.42 -315.48 123.63 456.01zm2370.43 -1380.27c62.86,148.5 74.43,297.97 34.79,448.52l160.98 72.48 -136.79 287.47 -175.96 -78.55c-69.88,79.19 -155.07,140.13 -255.66,182.71 -180.04,76.22 -358.46,79.02 -535.16,8.37 -176.77,-70.62 -303.26,-195.93 -379.48,-376.01 -76.22,-180.04 -78.21,-358.13 -5.91,-534.22 72.31,-176.06 198.46,-302.15 378.54,-378.4 180.04,-76.22 358.46,-79.06 535.17,-8.44 176.77,70.65 303.23,196 379.48,376.07zm-502.57 605.69c12.85,-5.43 29.32,-13.8 49.36,-25.04l-239.83 -107.33 139.28 -286.5 272.32 120.49c3.74,-59.49 -6.51,-117.89 -30.74,-175.15 -41.09,-97.07 -106.45,-163.51 -196.07,-199.31 -89.62,-35.83 -181.8,-33.71 -276.51,6.41 -94.68,40.08 -160.37,104.8 -197.01,194.08 -36.68,89.24 -34.45,182.4 6.65,279.48 41.1,97.04 106.42,163.47 196.04,199.27 89.61,35.83 181.8,33.71 276.51,-6.41zm465.49 -1294.67l320.23 -116.91 457.12 1252.32 -320.23 116.91 -457.12 -1252.33zm1204.92 654.71l438.56 -135.37 97.17 314.84 -764.33 235.92 -393.19 -1273.85 325.77 -100.55 296.01 959.02zm330.05 -1133.59l330.43 -83.95 328.26 1292.11 -330.43 83.95 -328.26 -1292.11zm1315.09 1101.4c-138.17,27.74 -258.59,21.46 -361.2,-18.76 -102.64,-40.29 -182,-106.56 -238.07,-198.9l252.31 -223.57c71.77,106.01 169.31,146.64 292.54,121.91 102.07,-20.52 147.24,-59.99 135.5,-118.53 -7.76,-38.57 -43.29,-63.8 -106.52,-75.72 -26.93,-4.96 -85.06,-10.76 -174.44,-17.41 -126.53,-10.83 -230.93,-40.69 -313.25,-89.58 -82.33,-48.85 -134.76,-129.26 -157.26,-241.31 -24.26,-120.76 -0.61,-227.14 70.89,-319.22 71.5,-92.08 172.01,-151.09 301.47,-177.07 109.56,-22 211.76,-16 306.64,18.05 94.91,34.04 174.51,95.05 238.85,183.18l-247.12 220.56c-60.56,-88.84 -138.17,-123.76 -232.74,-104.76 -39.85,8 -68.43,22.17 -85.7,42.48 -17.31,20.28 -23.42,42.89 -18.42,67.75 5.73,28.65 25.88,49.87 60.36,63.67 34.52,13.8 98.56,24.87 192.19,33.27 67.25,5.94 121.77,13.09 163.61,21.53 41.84,8.43 88.84,23.25 141.04,44.5 52.17,21.26 94.31,53.61 126.33,97 32.02,43.46 54.53,97.51 67.55,162.22 25.74,128.22 0.44,237.54 -75.92,328 -76.39,90.46 -189.29,150.69 -338.62,180.72zm1198.27 -1536.36l337.37 -32.96 129.6 1326.83 -337.37 32.96 -49.8 -509.86 -373.41 36.48 49.8 509.86 -339.3 33.13 -129.6 -1326.83 339.3 -33.13 47.98 490.93 373.37 -36.47 -47.94 -490.93zm2028 -60.97l-0.88 329.48 -329.48 -0.84 -2.56 1003.65 -340.92 -0.88 2.56 -1003.65 -329.44 -0.84 0.84 -329.48 999.88 2.56zm492.72 1050.56l513.43 52.26 -32.42 318.35 -852.6 -86.85 135.06 -1326.26 843.12 85.84 -32.19 316.42 -503.99 -51.32 -18.72 183.79 456.61 46.49 -31.82 312.65 -456.61 -46.5 -19.87 195.12zm1717.44 548.76l-376.62 -57.13 -153.99 -381.64 -260.24 318.82 -378.47 -57.39 499.26 -611.96 -284.3 -703.8 378.47 57.39 142.62 354.89 241.52 -296.65 378.44 57.39 -480.47 589.79 293.78 730.29zm1152.72 -1082.04l328.67 83.13 -326.95 1292.41 -254.78 -64.44 -291.65 -765.24 -164.39 649.88 -330.53 -83.61 326.95 -1292.41 256.63 64.92 291.66 765.24 164.39 -649.88zm1341.33 1653.91c-172.48,80.5 -350.77,87.76 -534.83,21.8 -184.09,-65.93 -317.17,-184.76 -399.26,-356.47 -82.13,-171.71 -90.22,-349.59 -24.26,-533.65 65.93,-184.09 185.17,-316.39 357.65,-396.86 172.45,-80.51 350.7,-87.76 534.79,-21.8 184.06,65.96 317.2,184.77 399.29,356.47 82.13,171.71 90.16,349.62 24.23,533.68 -65.96,184.06 -185.14,316.35 -357.62,396.83zm-630.08 -474.6c41.64,87.08 110.84,147.95 207.67,182.64 96.8,34.69 188.95,31.61 276.41,-9.18 87.46,-40.83 148.93,-110.84 184.5,-210.04 35.53,-99.23 32.49,-192.35 -9.14,-279.41 -41.64,-87.09 -110.84,-147.99 -207.68,-182.67 -96.8,-34.69 -188.95,-31.61 -276.41,9.21 -87.46,40.83 -148.93,110.84 -184.5,210.04 -35.53,99.2 -32.49,192.35 9.15,279.41zm1355.54 619.41l415.31 195.39 -140.26 298.13 -723.78 -340.55 567.52 -1206.27 308.49 145.12 -427.3 908.17zm1418.43 900.2c-182.2,55.03 -359.71,36.71 -532.46,-54.86 -172.76,-91.57 -287.47,-228.22 -344.19,-409.88 -56.72,-181.7 -39.31,-358.9 52.27,-531.66 91.57,-172.75 228.49,-286.66 410.72,-341.66 182.17,-55.03 359.65,-36.71 532.4,54.86 172.76,91.61 287.54,228.19 344.22,409.88 56.75,181.7 39.31,358.9 -52.3,531.66 -91.57,172.75 -228.43,286.63 -410.66,341.66zm-555.78 -559.79c28.78,92.11 88.57,162.29 179.43,210.47 90.87,48.15 182.5,58.27 274.89,30.37 92.38,-27.87 163.27,-88.37 212.64,-181.49 49.36,-93.12 59.65,-185.74 30.87,-277.85 -28.74,-92.11 -88.54,-162.3 -179.4,-210.44 -90.87,-48.18 -182.5,-58.3 -274.89,-30.4 -92.41,27.91 -163.27,88.4 -212.63,181.53 -49.36,93.09 -59.65,185.71 -30.91,277.82zm2308.18 1058.89l-79.69 109.22c-115.33,157.91 -258.22,249.72 -428.65,275.36 -170.46,25.71 -334.64,-19.09 -492.55,-134.39 -168.17,-122.78 -267.03,-277.52 -296.62,-464.17 -29.56,-186.65 13.3,-358.97 128.59,-516.87 115.33,-157.91 266.48,-251.91 453.51,-281.97 187.02,-30.06 360.02,12.92 518.93,128.96 100.48,73.39 176.06,163.1 226.7,269.25 50.61,106.15 72.2,213.85 64.72,323.17l-331.54 -36.91c3.2,-49.56 -8.5,-99.74 -35.06,-150.58 -26.56,-50.81 -65.96,-95.35 -118.26,-133.51 -85.09,-62.15 -175.05,-85.4 -269.82,-69.68 -94.78,15.69 -173.63,66.61 -236.49,152.71 -60.67,83.07 -85.03,172.96 -73.11,269.69 11.87,96.74 66.57,180.65 163.98,251.78 125.11,91.37 242.09,104.46 350.97,39.31l-261.49 -190.91 172.92 -236.86 542.96 396.43zm508.07 -320.04l265.41 213.95 -836.77 1037.83 -265.41 -213.98 836.77 -1037.8zm1323.72 1143.38l-881.28 314.91 -340.34 382.89 -254.78 -226.47 337.85 -380.06 211.93 -914.95 286.09 254.3 -151.19 525.55 505.64 -210.47 286.09 254.3zm-388.53 1555.62l102.24 -172.65 -301.65 -325.46 -179.91 88.84 -251.17 -270.97 1276.82 -583.58 282.21 304.51 -678.7 1228.91 -249.85 -269.59zm75.24 -633.21l182.54 196.91 240.54 -407.28 -423.08 210.37zm711.19 1045.59l277.62 365.48 -262.33 199.31 -483.88 -636.93 1061.56 -806.47 206.22 271.48 -799.19 607.13zm576.87 1361.65l126.43 -155.81 -250.7 -366.15 -190.97 61.51 -208.72 -304.85 1348.52 -390.15 234.57 342.57 -851.48 1116.15 -207.64 -303.26zm167.25 -615.37l151.67 221.54 297.63 -367.61 -449.3 146.06zm419.94 1615.14l265.98 -410.46 -58.54 -106.93 -377.52 206.7 -163.68 -299.04 1169.35 -640.17 256.09 467.75c65.22,119.17 81.79,240 49.67,362.51 -32.05,122.51 -106.59,215.77 -223.5,279.81 -70.15,38.39 -144.21,55.77 -222.22,52.13 -77.97,-3.64 -150.99,-26.62 -219.04,-68.96l-300.97 477.43 -175.62 -320.78zm723.67 -799.96l-262.27 143.57 90.53 165.4c19,37.35 47.14,61.04 84.45,70.99 37.32,9.98 75.44,4.28 114.42,-17.04 38.97,-21.33 64.34,-50.41 76.02,-87.22 11.71,-36.78 7.52,-73.56 -12.62,-110.33l-90.53 -165.36zm699.35 650.32l148.53 306.87 -1199.93 580.81 -148.56 -306.84 1199.96 -580.85zm433.33 955.81l132.91 313.96 -1227.66 519.74 -132.91 -313.96 1227.66 -519.74zm-601.63 1239.77l157.37 431.14 -309.51 113 -274.28 -751.41 1252.33 -457.12 116.91 320.24 -942.82 344.15zm1503.83 1655.16l-1292.07 328.26 -83.51 -328.54 695.87 -176.8 -598.36 -182 -8.43 -33.24 437.55 -443.25 -694.05 176.33 -83.94 -330.42 1292.11 -328.27 83.94 330.43 -468.42 468.76 635.85 190.16 83.47 328.57zm55.07 342.64l50.17 337.2 -1318.63 196.2 -50.17 -337.21 1318.63 -196.2zm214.56 1738.83l-860.67 -367.54 -509.86 49.8 -33.13 -339.26 506.11 -49.43 777.02 -527.5 37.22 380.97 -467.99 282.98 514.08 189.02 37.22 380.97zm-909.82 119.54l300.56 -14.24 35.09 741.96 -300.56 14.2 -35.09 -741.93zm935.5 1793.94l-329.48 -0.88 0.84 -329.48 -1003.66 -2.56 0.88 -340.92 1003.66 2.56 0.84 -329.44 329.48 0.84 -2.57 999.88zm-1430.81 834.21l197.15 -37.35 44.94 -441.47 -185.57 -76.32 37.45 -367.57 1281.68 572.72 -42.04 413.06 -1370.86 302.62 37.25 -365.69zm525.01 -361.94l-27.23 267.13 464.65 -88.57 -437.42 -178.56zm624.24 1620.54c-36.44,180.44 -129.43,318.75 -279.04,414.81 -149.57,96.06 -317.06,125.41 -502.5,87.96 -185.41,-37.45 -328.43,-129.5 -428.98,-276.07 -100.58,-146.61 -132.67,-310.15 -96.23,-490.59l107.46 -532.02 1306.75 263.89 -107.46 532.03zm-983.78 -198.67c-18.36,90.86 -3.14,171 45.65,240.44 48.82,69.44 122.98,114.21 222.56,134.29 99.57,20.11 185.3,7.66 257.2,-37.42 71.94,-45.05 117.08,-113 135.44,-203.86l38.06 -188.55 -660.81 -133.44 -38.09 188.55zm-236.59 2207.9c-154.23,-47.04 -276.33,-134.06 -366.36,-261.06l-158.85 77 -132.8 -289.36 173.12 -84.59c-15.93,-104.39 -8,-208.82 23.89,-313.32 57.02,-187.02 169.31,-325.63 336.87,-415.89 167.59,-90.29 344.87,-106.93 531.89,-49.87 187.03,57.02 324.89,169.75 413.56,338.19 88.7,168.4 104.5,346.08 47.47,533.11 -57.06,187.03 -169.31,325.7 -336.87,415.96 -167.59,90.29 -344.9,106.86 -531.93,49.84zm-142.22 -774.09c-4.08,13.36 -8.23,31.35 -12.45,53.92l236.19 -115.09 130.41 290.61 -267.13 131.59c43.22,41.06 94.61,70.65 154.09,88.81 100.81,30.74 193.7,23.21 278.67,-22.54 84.96,-45.79 142.45,-117.82 172.45,-216.21 30,-98.36 22.5,-190.27 -22.47,-275.63 -44.94,-85.4 -117.82,-143.47 -218.67,-174.2 -100.78,-30.74 -193.64,-23.21 -278.63,22.54 -84.96,45.75 -142.45,117.82 -172.45,216.21zm689.8 1182.62l-114.99 320.94 -1255.03 -449.67 114.99 -320.94 1255.03 449.67zm-1408.98 1572.16c-145.9,-68.63 -254.31,-172.25 -325.2,-310.82l-168.26 53.45 -89.95 -305.39 183.45 -58.94c-0.81,-105.61 22,-207.81 68.49,-306.64 83.24,-176.94 214.22,-298.07 392.98,-363.39 178.8,-65.35 356.61,-56.41 533.54,26.82 176.94,83.24 297.22,214.56 360.89,393.93 63.63,179.37 53.82,357.52 -29.42,534.42 -83.2,176.94 -214.19,298.1 -392.94,363.43 -178.8,65.35 -356.64,56.38 -533.58,-26.86zm-29.89 -786.5c-5.94,12.65 -12.62,29.86 -20.04,51.62l250.26 -80.1 87.42 306.3 -283.22 91.98c36.91,46.83 83.51,83.48 139.79,109.96 95.39,44.84 188.38,50.71 279.04,17.58 90.63,-33.1 157.87,-96.19 201.63,-189.25 43.8,-93.06 49.53,-185.07 17.24,-276.03 -32.29,-90.93 -96.09,-158.85 -191.48,-203.73 -95.35,-44.84 -188.34,-50.71 -278.97,-17.58 -90.66,33.13 -157.87,96.19 -201.67,189.25zm-1089.39 1721.73c-46.29,-184.59 -19.54,-361.03 80.17,-529.22 99.7,-168.2 241.65,-276.27 425.81,-324.25 184.19,-48.04 360.39,-22.2 528.55,77.5 168.2,99.74 275.46,241.92 321.72,426.55 46.26,184.6 19.5,361 -80.2,529.19 -99.7,168.2 -241.62,276.3 -425.81,324.32 -184.19,48.01 -360.39,22.13 -528.55,-77.61 -168.2,-99.7 -275.43,-241.85 -321.69,-426.48zm585.61 -528.45c-93.36,24.33 -166.31,80.74 -218.74,169.21 -52.47,88.44 -66.94,179.5 -43.46,273.1 23.45,93.63 80.51,167.28 171.13,221.04 90.66,53.75 182.71,68.46 276.07,44.1 93.4,-24.33 166.34,-80.71 218.78,-169.18 52.44,-88.47 66.94,-179.54 43.46,-273.13 -23.45,-93.6 -80.51,-167.29 -171.17,-221.04 -90.66,-53.75 -182.67,-68.43 -276.07,-44.1zm-360.42 2209.72l-266.11 -194.28 194.31 -266.11 -810.59 -591.85 201.03 -275.33 810.59 591.85 194.28 -266.11 266.11 194.31 -589.62 807.52zm-428.24 533.51l-226.5 254.78 -996.4 -885.67 226.5 -254.81 996.4 885.7zm-916 991.04l-237.2 242.19 -952.5 -932.7 183.89 -187.8 808.09 132.94 -478.98 -469.03 238.51 -243.57 952.51 932.73 -185.2 189.12 -808.09 -132.91 478.98 469.03zm-1706.34 -269.42c107.91,-90.63 216.55,-142.93 325.91,-156.86 109.35,-13.9 210.78,6.18 304.31,60.3l-114.11 317.17c-113.84,-58.54 -218.91,-47.41 -315.14,33.44 -79.73,66.98 -100.41,123.32 -62.02,169.01 25.31,30.13 68.59,35.22 129.8,15.32 25.98,-8.54 79.8,-31.38 161.38,-68.43 116.2,-51.19 222.15,-75.11 317.84,-71.73 95.65,3.37 180.24,48.79 253.76,136.28 79.22,94.31 109.52,199 90.97,314.09 -18.56,115.09 -78.42,215.1 -179.5,300.02 -85.57,71.87 -178.12,115.63 -277.72,131.29 -99.57,15.69 -198.7,0.33 -297.43,-46.13l110.94 -312.07c95.79,48.89 180.61,42.28 254.47,-19.74 31.11,-26.15 49.4,-52.3 54.83,-78.41 5.43,-26.08 -0.03,-48.86 -16.36,-68.29 -18.8,-22.37 -46.63,-31.35 -83.51,-26.89 -36.88,4.46 -98.39,25.48 -184.56,63.06 -61.85,27.03 -113.13,46.93 -153.89,59.59 -40.76,12.69 -89.11,22.24 -145.09,28.65 -55.97,6.38 -108.48,-1.79 -157.37,-24.5 -48.96,-22.74 -94.68,-59.38 -137.12,-109.93 -84.12,-100.15 -114.38,-208.18 -90.8,-324.22 23.62,-115.97 93.76,-223.03 210.41,-321.01zm-364.87 2022.33l-199.31 -262.33 262.37 -199.31 -607.13 -799.22 271.44 -206.22 607.13 799.19 262.37 -199.31 199.31 262.37 -796.19 604.84zm-162.5 98.52l-281.3 192.59 -753.13 -1099.98 281.3 -192.59 753.13 1099.99zm-1294.4 816.43l-172.45 -280.76 280.76 -172.42 -525.24 -855.23 290.47 -178.42 525.28 855.23 280.76 -172.45 172.45 280.76 -852.03 523.29zm-1574.62 -608.59c51.49,-119.41 146.98,-212.91 286.39,-280.39 139.42,-67.45 271.95,-84.35 397.57,-50.65 125.65,33.67 219.18,113.98 280.56,240.81l389.98 805.73 -306.87 148.5 -375.84 -776.55c-48.69,-100.58 -129.02,-123.73 -241.01,-69.54 -111.99,54.22 -143.67,131.59 -94.98,232.17l375.84 776.55 -306.84 148.53 -389.94 -805.73c-61.41,-126.83 -66.37,-249.98 -14.85,-369.43zm-754.58 1627.8l-113 -309.5 309.5 -112.96 -344.12 -942.82 320.24 -116.88 344.16 942.79 309.5 -112.96 112.96 309.5 -939.24 342.84zm-179.2 67.11l-325.77 100.55 -393.18 -1273.85 325.77 -100.55 393.18 1273.85z"/>
   <path class="fil4" d="M24820.07 16511.54c-3.98,-3.14 -7.8,-6.04 -11.47,-8.64"/>
   <path class="fil4" d="M24832.49 16521.83c-4.29,-3.75 -8.44,-7.15 -12.39,-10.29"/>
   <polyline class="fil4" points="24897.91,16433.39 24897.91,16433.43 24902.74,16436.93 24902.74,16436.97 24907.56,16440.34 24907.56,16440.37 24912.49,16443.61 24912.49,16443.65 24917.41,16446.75 24917.41,16446.79 "/>
   <path class="fil4" d="M24917.41 16446.79c4.96,3.07 9.95,5.94 14.98,8.67l0 0.04 5.06 2.67 0 0.03 10.13 5.09 0 0.04 5.09 2.39 0 0.04 5.09 2.33 0 0.04 5.09 2.3 0 0.03 5.09 2.19 0 0.04 5.09 2.16 0 0.04 5.06 2.13 0 0.03 5.06 2.09 5.03 2.06 0 0.03 5.03 2.06 4.99 2.02 0 0.04 4.96 2.02 4.93 2.02 4.86 2.02 0 0.04 4.86 2.02 0 0.04 4.79 2.06 4.72 2.09 4.69 2.13 0 0.03 4.62 2.16 4.59 2.22 4.49 2.26 0 0.03 4.42 2.33 4.35 2.39 0 0.04 4.25 2.46 4.19 2.57 0 0.03 4.12 2.63 0 0.03 3.98 2.73 3.91 2.87 3.81 2.97 0 0.04 3.71 3.07 3.58 3.21 0 0.03 3.47 3.34 3.37 3.47 0 0.04 3.24 3.61 0 0.03 3.14 3.75 0 0.03 2.97 3.95 0 0.04 2.87 4.08 0 0.03 -0.68 2.46 0 0.03 -0.67 2.4 0 0.03 -0.74 2.33 0 0.03 -0.74 2.26 0 0.03 -0.78 2.23 0 0.03 -0.78 2.16 0 0.03 -0.85 2.09 0 0.03 -0.84 2.06 -0.84 2.02 -0.91 1.96 0 0.04 -0.91 1.89 -0.94 1.85 0 0.04 -0.98 1.79 -0.98 1.76 0 0.03 -1.01 1.69 -1.05 1.65 0 0.03 -1.08 1.62 -1.08 1.55 0 0.03 -1.11 1.52 -1.15 1.48 -1.18 1.45 0 0.03 -1.18 1.39 -1.22 1.38 -1.21 1.31 0 0.04 -1.28 1.28 -1.28 1.25 0 0.03 -1.31 1.22 -1.31 1.18 -1.35 1.18 -1.38 1.11 -1.42 1.11 -1.42 1.08 -1.45 1.05 -1.48 1.01 -1.48 1.01 -1.55 0.94 0 0.04 -1.52 0.94 -1.59 0.91 -1.59 0.91 -1.62 0.87 -1.65 0.88 -1.65 0.85 -1.69 0.84 -1.72 0.81 -1.72 0.81 -1.79 0.81 -1.75 0.78 -1.82 0.78 -1.82 0.74 -1.85 0.78 -1.89 0.74 -1.89 0.74 -1.93 0.74 -1.92 0.71 -1.99 0.74 -1.99 0.71 -1.99 0.74 -2.06 0.74 -2.06 0.71 -2.06 0.74 -2.13 0.74 -2.13 0.74 -2.16 0.74 -2.16 0.78 -2.87 0.98 -2.76 0.94 -2.7 0.88 -2.63 0.81 -2.57 0.74 -2.46 0.71 -0.04 0 -2.4 0.64 -2.33 0.61 -0.03 0 -2.26 0.54 -2.19 0.47 -0.03 0 -2.13 0.44 -2.09 0.37 0 0.03 -2.02 0.3 -0.03 0 -1.96 0.27 0 0.03 -1.93 0.2 -1.85 0.17 -0.04 0 -1.79 0.13 -1.76 0.07 -0.03 0 -1.69 0 -1.69 0 -0.04 0 -3.2 -0.2 0 -0.04 -1.55 -0.13 0 -0.04 -1.52 -0.2 -1.45 -0.27 -0.04 0c-1.96,-0.37 -3.78,-0.91 -5.57,-1.55l-0.04 0 -1.31 -0.5 -0.03 0 -1.28 -0.54 -1.28 -0.57 0 -0.04 -3.74 -2.02 -1.22 -0.74 0 -0.03 -2.39 -1.65 -3.54 -2.8 0 -0.04 -3.51 -3.14 0 -0.04c-3.14,-2.97 -6.28,-6.34 -9.62,-10.12l-0.03 0 -16.97 -19.5 -9.15 -10.29 -0.03 0c-15.05,-16.7 -28.68,-31.14 -41.2,-43.56l-0.04 0 -7.32 -7.22 -0.03 0c-7.22,-6.98 -14.04,-13.23 -20.45,-18.83l-0.03 0c-4.29,-3.75 -8.44,-7.12 -12.39,-10.29l-0.03 0c-3.98,-3.17 -7.8,-6.04 -11.47,-8.64l-0.04 0 -5.4 -3.71 -0.03 0 -5.2 -3.34 -0.04 0 -4.99 -2.94 -0.04 0 -4.82 -2.6 -0.04 0 -4.66 -2.19 -4.48 -1.89 -0.04 0 -4.35 -1.55 -0.03 0 -4.19 -1.22 -0.03 0 -4.05 -0.91 -0.03 0 -3.91 -0.61 -0.04 0 -3.81 -0.3 -0.04 0 -3.68 -0.04 -0.04 0 -3.61 0.24 -0.03 0 -3.51 0.5 -0.03 0 -3.41 0.74 -0.03 0 -3.34 0.98 -0.03 0 -3.31 1.21 -0.04 0 -3.24 1.42 -0.03 0 -3.17 1.62 -0.03 0 -3.17 1.82 -0.03 0 -3.11 1.99 -0.04 0 -3.14 2.19 -0.03 0 -3.11 2.33 -3.14 2.5 -3.14 2.63 -0.03 0 -3.14 2.77 -0.04 0 -3.14 2.87 -0.03 0 -3.21 2.97 -0.03 0 -3.24 3.07 -0.03 0 -3.31 3.17 -0.04 0 -3.37 3.24 -0.03 0 -3.44 3.3 -0.03 0 -7.19 6.75 -0.03 0 -3.71 3.44 -0.04 0c-6.34,5.74 -13.16,11.54 -20.58,17.2l-0.04 0 -4.52 3.41 -0.04 0 -4.69 3.34 -0.04 0c-3.2,2.23 -6.54,4.39 -9.95,6.51l-0.03 0 -5.3 3.14 -5.4 3.07 -0.07 0 -5.64 2.97 -0.07 0 -5.83 2.83 -0.07 0 -6.07 2.74 -0.07 0 -6.31 2.6 -0.07 0 -6.55 2.7 -0.07 0 -6.31 2.83 -0.07 0 -6 2.94 -0.07 0 -5.8 3.07 -0.04 0 -5.57 3.17 -0.03 0 -5.33 3.31 -0.03 0 -5.09 3.41 -0.04 0 -4.86 3.51 -0.03 0 -4.66 3.61 -0.04 0 -4.45 3.71 -0.04 0 -4.22 3.81 -0.03 0 -4.05 3.91 -0.03 0 -3.85 3.98 -0.04 0 -3.68 4.08 -0.04 0 -3.51 4.19 -3.34 4.25 -0.04 0 -3.17 4.32 -3.04 4.39 -2.9 4.45 -2.73 4.56 -0.04 0 -2.6 4.59 -2.5 4.66 -2.36 4.69 -2.26 4.76 -2.16 4.83 -2.06 4.86 -1.96 4.89 -1.86 4.93 -0.03 0 -1.79 4.96 0 0.03 -1.72 5 -1.65 5.03 -1.62 5.06 -1.55 5.06 0 0.03 -1.48 5.09 -0.04 0 -1.45 5.09 -0.04 0 -1.42 5.13 -2.83 10.29 -1.38 5.13 -0.04 0 -1.38 5.13 0 0.04 -1.38 5.13 -0.04 0 -2.83 10.22 0 0.04 -2.93 10.15 -0.04 0 -1.52 5.06 -0.03 0c-1.55,5.06 -3.14,10.02 -4.89,14.98l0 0.04 -3.61 9.82 0 0.03 -1.92 4.83 0 0.03c-1.96,4.86 -4.08,9.55 -6.35,14.24l0 0.04c-1.52,3.1 -3.07,6.17 -4.76,9.21l0 0.04 -2.56 4.49c-1.76,3.04 -3.58,5.97 -5.54,8.87l0 0.03 -2.97 4.29 0 0.03 -3.14 4.22 0 0.04c-2.13,2.77 -4.39,5.57 -6.75,8.27l-3.44 3.91 -0.04 0.07 -2.06 2.33 -0.03 0.07 -0.94 1.08 -0.04 0.03 -0.91 1.05 -0.04 0.03 -0.87 1.02 0 0.03 -0.85 0.94 -0.03 0.04 -0.81 0.91 -0.04 0.07 -0.78 0.88 -0.03 0.04 -0.74 0.81 -0.03 0.04 -0.71 0.81 -0.04 0.03 -0.67 0.78 -0.04 0.04 -0.67 0.71 -0.04 0.03 -0.64 0.71 -0.03 0.04 -0.61 0.64 -0.04 0.03 -0.61 0.64 -0.04 0 -0.57 0.61 -0.03 0.04 -0.57 0.57 -0.03 0 -0.54 0.54 -0.03 0.03 -0.54 0.51 -0.04 0.03 -0.54 0.47 -0.04 0 -0.5 0.47 -0.04 0.04 -0.54 0.44 -0.54 0.41 -0.54 0.41 -0.54 0.37 0 0.04 -0.54 0.34 -0.54 0.33 -0.54 0.3 -0.04 0.04 -0.54 0.27 -0.54 0.3 -0.04 0 -0.54 0.27 -0.57 0.24 -0.03 0 -0.57 0.24 -0.61 0.24 -0.64 0.2 -0.64 0.2 -0.67 0.2 -0.68 0.17 -0.71 0.17 0 0.04 -0.74 0.13 0 0.04 -0.78 0.13 0 0.04 -0.78 0.13 -0.04 0 -0.81 0.13 0 0.04 -0.84 0.13 -0.04 0.03 -0.87 0.1 0 0.04 -0.91 0.13 -0.03 0.04 -0.94 0.13 -0.04 0.03 -0.98 0.1 -0.04 0.04 -1.01 0.13 -0.04 0.04 -1.04 0.13 -0.04 0.03 -1.11 0.14 -0.03 0.03 -2.4 0.34 -0.03 0.04 -1.25 0.17 -0.04 0.04 -1.31 0.17 -0.04 0.03 -2.8 0.41 -0.07 0.04 -6.41 1.08c-3,-22 -5.26,-44.5 -6.91,-67.45l-0.04 0 -0.3 -4.93 -0.04 0 -0.3 -4.93 -0.03 0 -0.27 -4.96 -0.04 0 -0.24 -4.96 -0.03 0 -0.24 -4.96 -0.04 0 -0.24 -4.99 -0.03 0 -0.2 -4.99 -0.03 0 -0.17 -5.03 -0.04 0 -0.17 -5 -0.03 -0.03 -0.17 -5.03 -0.04 0 -0.13 -5.03 -0.03 -0.04 -0.1 -5.03 -0.04 -0.03 -0.1 -5.03 -0.04 -0.04 -0.1 -5.06 0 -0.04 -0.1 -5.06 0 -0.03 -0.07 -5.06 -0.04 -0.03 -0.04 -5.09 -0.03 -0.04 -0.04 -5.09 -0.03 -0.04 0 -5.09 -0.04 -0.03 0 -5.09 0 -15.52 0 -0.03 0.04 -5.16 0 -0.04 0.03 -5.16 0 -0.04 0.2 -15.59 0 -0.07 0.1 -5.2 0 -0.04 0.1 -5.2 0 -0.07 0.24 -10.46 0 -0.04 0.3 -10.49 0 -0.07 0.17 -5.23 0 -0.07 0.17 -5.23 0 -0.07 0.17 -5.23 0 -0.07 0.2 -5.23 0 -0.07 0.2 -5.26 0 -0.07 0.44 -10.59 0 -0.07 0.24 -5.26 0 -0.07 0.24 -5.26 0 -0.07 0.27 -5.3 0 -0.07 0.24 -5.3 0 -0.07 0.27 -5.3 0 -0.07 0.27 -5.3 0 -0.07 0.3 -5.33 0 -0.07 0.27 -5.3 0 -0.07 0.3 -5.33 0 -0.07 0.74 -12.42 0 -0.07 0.74 -11.91 0 -0.07 0.81 -11.37 0 -0.07 0.81 -10.9 0 -0.07 0.88 -10.39 0 -0.07 0.91 -9.96 0 -0.03 0.94 -9.48 0 -0.07 0.98 -9.01 0 -0.07 1.04 -8.6 0 -0.04 1.05 -8.17 0 -0.03 1.11 -7.8 0 -0.04 1.15 -7.35 0 -0.04 1.18 -6.98 0 -0.03 1.22 -6.58 0 -0.04 1.28 -6.24 0 -0.04 1.32 -5.87 0 -0.04 1.35 -5.53 0 -0.04 1.42 -5.23 0 -0.04 1.45 -4.89 1.48 -4.62 1.55 -4.32 1.59 -4.05 1.62 -3.74 0 -0.04 1.69 -3.48 0 -0.03 1.72 -3.24 0 -0.04 1.79 -3 0 -0.04 1.82 -2.8 1.89 -2.6 1.92 -2.4 0 -0.03 1.96 -2.19 0.04 0 2.02 -2.06 2.06 -1.89 0.04 0 2.13 -1.72 2.19 -1.59 0 -0.03 2.22 -1.45 0.04 0 2.3 -1.35 0 -0.03 2.33 -1.25 0.03 0 2.4 -1.15 0 -0.03 2.46 -1.08 2.53 -1.01 0 -0.03 2.57 -0.94 0.03 0 2.63 -0.91 0 -0.03 2.7 -0.88 0 -0.04 2.77 -0.87 2.8 -0.88 0.04 0 2.87 -0.88 0 -0.04 2.94 -0.87 0 -0.04 3 -0.91 0 -0.04 3.07 -0.94 0 -0.03 9.58 -3.28 0 -0.03c3.27,-1.22 6.71,-2.57 10.15,-4.12l0 -0.03c10.43,-4.63 21.7,-10.97 34.11,-20.65l-1.39 -6.35 -0.03 -0.07 -1.42 -6.07 -0.04 -0.07 -1.42 -5.87 -0.03 -0.03 -1.45 -5.64 0 -0.07 -1.45 -5.4 -0.04 -0.07 -1.48 -5.2 0 -0.03 -1.48 -5 -0.04 -0.03 -1.48 -4.79 0 -0.04 -1.52 -4.59 0 -0.04 -1.52 -4.39 -0.04 -0.04 -1.52 -4.22 0 -0.04 -1.52 -4.01 -0.04 -0.07 -1.55 -3.85 0 -0.03 -1.55 -3.68 0 -0.04 -1.59 -3.54 -1.59 -3.37 0 -0.03 -1.58 -3.24 0 -0.04 -1.59 -3.07 0 -0.04 -1.59 -2.97 -0.04 0 -1.58 -2.83 0 -0.04 -1.62 -2.7 -1.62 -2.6 0 -0.04 -1.62 -2.46 -0.04 -0.04 -1.62 -2.36 0 -0.03 -1.62 -2.26 0 -0.03 -1.65 -2.19 -1.65 -2.09 0 -0.03 -1.65 -2.02 -1.65 -1.96 0 -0.03 -1.65 -1.89 -1.65 -1.82 0 -0.03 -1.69 -1.79 -1.65 -1.72 0 -0.03 -1.69 -1.69 -1.65 -1.69 -1.69 -1.62 0 -0.03 -3.34 -3.2 0 -0.04 -1.69 -1.59 -3.34 -3.2 -1.69 -1.62 -5.03 -4.96 0 -0.04 -3.34 -3.47c-9.48,-10.09 -18.89,-22.57 -27.87,-42.82l0.1 -0.04 -0.04 -0.03c3.71,-1.22 7.32,-2.26 10.83,-3.17l0.07 -0.03c3.51,-0.91 6.92,-1.65 10.19,-2.33l0.07 -0.03 4.82 -0.84 0.04 -0.04c4.79,-0.78 9.35,-1.25 13.73,-1.48l0.03 -0.04 4.25 -0.1c15.59,-0.24 28.48,2.76 39.88,7.56l0.04 0 3.07 1.35 0.03 0 2.97 1.42 0.04 0 2.9 1.48 0.03 0 2.83 1.55 0.04 0 5.57 3.28 0.04 0 2.7 1.69 0.04 0 7.96 5.26 2.6 1.79 0.04 0 2.56 1.79 2.57 1.79 0 0.03 2.56 1.76 2.56 1.79 2.57 1.72 2.56 1.72 2.6 1.69 2.6 1.62 2.6 1.56 0 0.03 2.67 1.48 2.67 1.45 2.7 1.38 2.77 1.28 2.8 1.21 2.87 1.11 2.9 0.98 2.97 0.91 0.04 0 3.04 0.78 3.1 0.64 3.21 0.51 3.27 0.37 3.37 0.24 3.44 0.1 0.04 0 3.51 -0.1 0.03 0 3.65 -0.24 0.04 0 3.74 -0.44 3.88 -0.61 3.98 -0.81 0.03 0 4.08 -1.01 0.04 0 4.22 -1.18 0.04 0 4.35 -1.42 0.04 0 4.52 -1.65 0.04 0 4.62 -1.86 0.03 0 1.56 -2.19 0.03 0 1.45 -2.16 0.03 0 1.35 -2.16 0.04 0 1.31 -2.13 0.04 0 1.21 -2.13 0.04 0 1.15 -2.09 0.04 0 1.08 -2.09 1.01 -2.09 0.04 0 0.94 -2.09 0.03 0 0.88 -2.06 0.81 -2.06 0.03 0 0.74 -2.02 0.03 0 0.68 -2.02 0.03 0 0.64 -2.06 0.57 -2.02 0.03 0 0.51 -1.99 0.03 0 0.47 -2.02 0.41 -2.02 0.04 0 0.37 -1.99 0.04 0 0.3 -2.02 0.03 0 0.27 -1.99 0.24 -2.02 0.04 0 0.17 -1.99 0.04 0 0.13 -1.99 0.04 0 0.1 -2.02 0.03 0 0.07 -2.03 0.04 -1.99 0.03 0 0 -2.02 0 -2.03 0 -2.06 -0.03 0 -0.04 -2.03 -0.03 0 -0.04 -2.06 -0.03 0 -0.07 -2.06 -0.03 0 -0.1 -2.06 -0.03 0 -0.1 -2.09 -0.04 0 -0.13 -2.06 -0.04 0 -0.13 -2.13 -0.03 0 -0.14 -2.09 -0.03 0 -0.17 -2.13 -0.04 0 -0.17 -2.16 -0.03 0 -0.17 -2.16 -0.04 0 -0.2 -2.16 -0.04 0 -0.17 -2.19 -0.04 0 -0.2 -2.22 -0.04 0 -0.17 -2.23 -0.03 0 -0.2 -2.23 -0.03 0 -0.17 -2.26 -0.04 0 -0.17 -2.3 -0.03 0 -0.17 -2.33 -0.04 0 -0.13 -2.33 -0.04 0 -0.17 -2.36 -0.14 -2.36 -0.03 0 -0.1 -2.43 -0.03 0 -0.1 -2.43 -0.04 0 -0.07 -2.46 -0.03 0 -0.07 -2.46 -0.03 -2.53 -0.04 0 0 -2.53 0 -2.6 0 -2.6 0.04 0 0.03 -2.63 0.1 -2.7 0.13 -2.7 0.17 -2.73 2.67 -2.67 3.07 -2.8 3.54 -2.9 3.91 -3.04 4.32 -3.14 4.72 -3.24 5.09 -3.34 5.43 -3.41 5.8 -3.54 6.14 -3.58 6.44 -3.64 6.75 -3.74 7.05 -3.78 7.35 -3.81 7.59 -3.88 7.86 -3.92 8.1 -3.94 8.3 -3.95 8.54 -3.98 0.03 -0.04 8.74 -3.98 8.91 -3.98 0 -0.04 9.11 -3.98 9.28 -3.98 9.41 -3.98 9.55 -3.94 0.03 0 9.65 -3.95 0.04 0 9.75 -3.88 0.03 0 9.85 -3.85 0.03 0 9.95 -3.81 10.06 -3.74 10.09 -3.68 10.15 -3.64 10.16 -3.54 0.04 0 10.15 -3.44 0.04 -0.04 10.19 -3.37 10.19 -3.27 10.16 -3.17 0 -0.03 10.12 -3.07 0.03 0 10.06 -2.94 0.04 -0.03 10.02 -2.83 9.96 -2.7 0 -0.03 9.85 -2.57 0 -0.03 9.75 -2.43 0.03 0 9.65 -2.3 0 -0.04 9.52 -2.13 9.38 -1.99 0.03 0 9.21 -1.82 0 -0.04 9.07 -1.62 0 -0.04 8.87 -1.42 0 -0.03 8.7 -1.28 0 -0.03 8.5 -1.05 0 -0.04 8.27 -0.87 0 -0.04 8.03 -0.67 0.04 -0.04 7.76 -0.44 0.04 -0.04 7.52 -0.24 0 -0.04 7.26 0"/>
   <path class="fil4" d="M25099.01 15871.3c19.03,0.17 35.06,2.77 46.83,8.47l0 0.07 -0.41 2.9 0 0.07 -0.57 2.97 0 0.07 -0.78 3 0 0.07 -0.91 3.07 0 0.04 -1.11 3.14 0 0.03 -1.25 3.17 0 0.03 -1.38 3.21 0 0.07 -1.56 3.24 0 0.04 -1.69 3.31 0 0.03 -1.86 3.31 0 0.07 -1.96 3.34 0 0.03 -2.09 3.41 0 0.04 -2.23 3.41 0 0.04 -2.33 3.44 0 0.03 -2.43 3.48 -0.04 0.04 -2.53 3.51 -0.04 0.04 -2.63 3.51 -0.04 0.04 -2.73 3.51 -0.04 0.03 -2.83 3.54 0 0.04 -2.97 3.57 -3.04 3.58 0 0.03 -3.11 3.58 0 0.03 -3.2 3.58 0 0.03 -3.24 3.58 -0.04 0.03 -3.31 3.61 -3.37 3.61 -0.03 0 -3.44 3.61 -3.47 3.61 -0.04 0 -3.51 3.58 -0.04 0.03 -3.57 3.58 -3.61 3.54 0 0.03 -3.65 3.54 -0.03 0 -3.65 3.54 -0.04 0.04 -3.68 3.47 -0.03 0.04 -3.68 3.48 -0.04 0.03 -3.71 3.44 0 0.04 -3.74 3.44 -3.74 3.41 0 0.03 -3.75 3.37 -3.71 3.37 -0.04 0 -3.71 3.31 0 0.04 -3.71 3.27 -3.68 3.24 0 0.03 -3.65 3.17 -0.04 0.03 -3.61 3.14 0 0.04 -3.57 3.07 -0.04 0.04 -3.51 3.07 -0.03 0 -3.48 3 -0.04 0.04 -3.44 2.93 0 0.04 -3.37 2.87 -0.04 0.04 -3.3 2.83 -0.04 0.03 -3.24 2.77 -0.03 0.04 -3.17 2.7 0 0.04 -3.14 2.63 0 0.04 -6 5.13 0 0.03 -2.87 2.43 0 0.04 -2.8 2.36 0 0.03 -5.23 4.52 0 0.03 -2.46 2.13 -0.04 0.04 -6.68 6 -2.6 2.33 0 0.03 -4.82 4.56 0 0.04 -2.26 2.19 0 0.03 -2.16 2.13 0 0.04 -2.06 2.09 0 0.04 -1.96 2.02 0 0.04 -1.85 2.02 -1.76 1.99 -0.03 0 -1.65 1.96 -1.59 1.93 -0.04 0 -1.48 1.89 -0.03 0 -1.42 1.85 -1.35 1.82 -1.28 1.82 -1.21 1.79 -1.15 1.76 -1.08 1.72 0 0.03 -1.01 1.72 -2.73 5.1 0 0.03 -1.55 3.34 0 0.03 -0.71 1.65 0 0.04 -0.68 1.65 0 0.03 -1.21 3.34 0 0.03 -0.57 1.69 0 0.03 -0.54 1.65 0 0.07 -0.51 1.69 0 0.03 -0.94 3.44 0 0.07 -1.31 5.36 0 0.04 -0.41 1.79 0 0.07 -1.25 5.7 0 0.03 -0.41 1.96 0 0.04 -0.84 4.05 0 0.04 -0.44 2.09 0 0.04 -0.47 2.13 0 0.03 -0.47 2.16 0 0.03 -0.51 2.23 0 0.04 -0.5 2.29 0 0.04 -0.57 2.33 0 0.04 -0.57 2.39 0 0.04 -0.61 2.46 0 0.04 -1.35 5.13 0 0.03 -0.74 2.67 -0.78 2.73 0 0.04 -0.81 2.8 0 0.04 -0.88 2.87 0 0.04 -0.94 2.97 -2.06 6.18 0 0.03 -1.11 3.2 -1.18 3.31 0 0.04 -1.25 3.37 -1.31 3.51 -1.04 2.7 -1.08 2.6 -1.08 2.59 -1.11 2.5 -1.11 2.5 -1.11 2.39 -1.15 2.4 -1.18 2.33 -1.18 2.26 -1.18 2.26 -1.21 2.16 0 0.04 -1.18 2.13 -1.25 2.12 -1.22 2.06 -1.25 2.02 -1.25 2.03 -1.25 1.96 -1.28 1.92 -1.28 1.89 -1.28 1.85 0 0.04 -1.28 1.82 -1.28 1.79 0 0.04 -1.32 1.75 -1.28 1.76 -1.31 1.72 0 0.04 -1.32 1.69 -1.31 1.69 -1.28 1.65 -1.31 1.65 -1.31 1.62 0 0.03 -1.31 1.59 -1.32 1.59 0 0.04 -1.31 1.55 0 0.03 -1.31 1.56 -1.28 1.55 -1.31 1.55 -1.28 1.55 -1.31 1.52 -1.28 1.52 0 0.03 -1.28 1.48 0 0.04 -1.28 1.52 -1.25 1.52 -1.28 1.52 -1.25 1.52 -1.25 1.52 -1.21 1.52 0 0.03 -1.25 1.48 0 0.04 -1.22 1.52 -1.18 1.52 0 0.04 -1.21 1.52 0 0.03 -1.15 1.55 0 0.04 -1.18 1.52 0 0.03 -1.15 1.55 0 0.04 -1.15 1.59 0 0.03 -1.11 1.59 0 0.04 -1.11 1.59 0 0.03 -1.08 1.62 0 0.04 -1.08 1.65 0 0.04 -1.04 1.65 0 0.04 -1.05 1.72 -1.01 1.69 0 0.07 -1.01 1.69 0 0.07 -0.98 1.72 0 0.07 -0.94 1.75 0 0.04 0 0.03 3.28 7.26 0 0.07 3.41 6.98 0 0.07 3.51 6.72 0 0.07 3.65 6.48 3.74 6.31 0 0.04c7.59,12.31 15.76,23.18 24.43,32.86l0 0.04c4.32,4.82 8.77,9.38 13.33,13.63l0 0.03 4.59 4.15 0 0.03 4.66 3.98 0 0.04"/>
   <path class="fil5 str0" d="M12704.43 30394.96c151.61,111.04 -147.75,354.48 -248.46,451.92 -100.78,97.44 -3.06,48.79 104.13,-4.44 107.11,-53.22 223.59,-111.18 318.92,-158.66 95.26,-47.48 169.43,-84.56 292.96,-119.61 123.54,-34.97 296.45,-67.91 450.9,-96.78 154.44,-28.8 290.27,-53.44 428.28,-71.99 137.94,-18.54 277.91,-30.9 415.93,-43.26 137.94,-12.36 273.84,-24.65 368.58,-10.25 94.67,14.4 148.19,55.63 158.52,98.82 10.25,43.26 -22.69,88.49 -102.96,133.79 -80.35,45.3 -207.96,90.6 -339.72,129.72 -131.83,39.12 -267.66,72.06 -438.54,109.07 -170.95,37.08 -376.8,78.31 -635.59,145.35 -258.79,67.11 -570.44,160.11 -638.14,252.39 -67.77,92.35 108.49,183.96 305.47,182.73 196.98,-1.16 414.83,-95.18 614.35,-164.84 199.46,-69.66 380.59,-114.96 578.29,-174.66 197.64,-59.7 411.78,-133.87 590.94,-218.29 179.09,-84.42 323.21,-179.09 452.93,-271.8 129.72,-92.63 244.97,-183.17 374.69,-253.19 129.72,-70.02 273.91,-119.39 391.27,-146.22 117.36,-26.76 207.96,-30.83 288.31,-20.58 80.28,10.33 150.22,34.98 166.73,84.42 16.43,49.44 -20.58,123.54 -102.96,201.78 -82.39,78.31 -210,160.63 -349.97,247.08 -140.05,86.53 -292.46,177.06 -442.76,259.44 -150.3,82.38 -298.56,156.48 -422.1,228.54 -123.54,72.13 -222.36,142.08 -341.75,187.38 -119.47,45.3 -259.44,65.88 -461.22,72.06 -201.78,6.18 -465.37,-2.11 -617.7,6.11 -152.33,8.29 -193.56,33.01 -207.96,84.5 -14.4,51.48 -2.11,129.72 82.31,168.84 84.42,39.12 240.97,39.12 331.57,88.49 90.6,49.44 115.25,148.34 144.41,203.53 29.16,55.26 62.82,66.97 114.31,36.06 51.41,-30.9 120.78,-104.34 188.4,-141.06 67.55,-36.72 133.5,-36.72 184.98,2.4 51.48,39.12 88.49,117.36 88.49,187.38 0,70.02 -37.01,131.76 4.15,133.79 41.16,2.11 160.63,-55.55 267.73,-158.52 107.04,-102.96 201.71,-251.15 319.07,-376.8 117.36,-125.58 257.41,-228.54 358.33,-284.17 100.85,-55.56 162.59,-63.84 214.07,-16.51 51.48,47.41 92.71,150.37 100.93,249.19 8.22,98.89 -16.5,193.57 -47.41,302.71 -30.9,109.14 -67.91,232.68 -123.47,343.86 -55.63,111.18 -129.79,210 -158.73,261.41 -28.94,51.41 -12.72,55.41 61.95,-13.31 74.6,-68.71 207.74,-210.22 266.28,-186.37 58.54,23.93 42.61,213.05 35.92,292.09 -6.76,79.04 -4.15,47.92 21.81,7.64 25.96,-40.28 75.4,-89.66 108.34,-190.58 32.94,-100.85 49.37,-253.26 63.84,-432.43 14.4,-179.09 26.76,-384.94 43.26,-545.57 16.43,-160.62 37.01,-275.95 74.09,-362.48 37.01,-86.46 90.6,-144.04 160.63,-203.81 69.95,-59.7 156.48,-121.43 228.54,-183.24 72.06,-61.73 129.65,-123.54 187.31,-158.52 57.66,-34.97 115.32,-43.26 170.95,-6.18 55.55,37.09 109.14,119.4 121.5,216.18 12.29,96.78 -16.51,207.96 -24.72,366.48 -8.29,158.59 4.07,364.44 4.07,525.06 0,160.63 -12.36,275.87 -70.02,368.51 -57.66,92.71 -160.55,162.73 -207.89,226.57 -47.41,63.84 -39.12,121.43 -82.38,183.17 -43.27,61.81 -137.94,127.76 -214.14,197.71 -76.2,70.02 -133.87,144.19 -141.57,180.77 -7.78,36.57 34.39,35.7 94.74,36.21 60.28,0.51 138.67,2.47 197.93,-42.1 59.26,-44.5 99.25,-135.54 147.75,-128.2 48.5,7.42 105.44,113.15 150.88,188.33 45.37,75.26 79.33,119.91 117.5,42.39 38.18,-77.51 80.64,-277.26 157.86,-270.2 77.15,7.13 189.06,220.9 267.07,332.23 78.02,111.32 122.09,120.19 127.18,62.31 5.02,-57.88 -29.08,-182.44 -62.53,-271.51 -33.52,-89 -66.46,-142.59 -64.35,-204.4 2.04,-61.74 39.05,-131.69 59.7,-234.65 20.57,-102.96 24.65,-238.86 16.43,-459.19 -8.22,-220.32 -28.87,-524.99 -28.87,-765.89 0,-240.9 20.65,-418.03 63.92,-572.47 43.19,-154.37 109.07,-286.2 170.88,-368.59 61.73,-82.31 119.39,-115.25 150.3,-146.15 30.9,-30.83 34.97,-59.7 72.06,-41.15 37.08,18.54 107.03,84.42 142.08,166.73 34.98,82.38 34.98,181.27 34.98,325.39 0,144.12 0,333.54 -34.98,539.39 -35.05,205.93 -105,428.36 -131.76,584.84 -26.83,156.48 -10.32,247.01 24.65,314.92 34.98,67.99 88.57,113.29 144.19,142.08 55.55,28.87 113.21,41.23 146.15,-26.76 32.94,-67.91 41.16,-216.11 61.73,-341.75 20.58,-125.58 53.59,-228.54 88.64,-323.29 34.98,-94.67 71.99,-181.2 115.25,-224.46 43.19,-43.19 92.64,-43.19 154.44,0 61.73,43.26 135.83,129.79 181.13,228.61 45.3,98.82 61.81,210 -111.18,463.26 -172.98,253.26 -535.31,648.6 -716.52,868.93 -181.2,220.32 -181.2,265.62 -171.24,319.5 9.96,53.88 29.81,116.27 81.3,122.45 51.48,6.18 134.59,-43.92 285.26,-186.36 150.59,-142.37 368.87,-377.09 521.21,-510.96 152.33,-133.79 238.87,-166.73 286.2,-123.54 47.34,43.26 55.63,162.73 47.41,290.35 -8.29,127.69 -32.94,263.59 -76.42,369.67 -43.48,106.09 -105.8,182.3 -102.38,205.13 3.35,22.83 72.35,-7.71 151.39,-144.41 78.97,-136.7 168.04,-379.56 226.65,-370.11 58.61,9.45 86.82,271.15 113.07,406.76 26.25,135.68 50.46,145.21 60.57,57.3 10.04,-87.83 5.96,-273.11 20.36,-474.89 14.4,-201.78 47.33,-420.07 107.04,-496.27 59.7,-76.13 146.22,-10.25 193.85,91.26 47.63,101.58 56.5,238.87 97.65,389.16 41.15,150.3 114.74,313.69 151.02,391.42 36.29,77.81 35.34,69.88 47.92,65.22 12.58,-4.65 38.68,-6.18 65.37,-22.47 26.61,-16.29 53.81,-47.33 108.92,-85.87 55.05,-38.46 137.94,-84.42 187.96,-51.84 50.03,32.57 67.04,143.68 106.38,171.31 39.26,27.7 100.78,-28 141.06,-160.77 40.28,-132.78 59.41,-342.56 189.28,-337.39 129.79,5.24 370.4,225.41 513.36,281.98 142.95,56.65 188.26,-50.46 258.06,-72.35 69.73,-21.89 164.04,41.37 228.83,79.48 64.79,38.1 100.13,51.12 139.46,33.89 39.34,-17.24 82.75,-64.64 44.72,-172.77 -38.03,-108.13 -157.5,-276.97 -256.31,-425.23 -98.81,-148.26 -177.06,-275.88 -232.61,-446.83 -55.63,-170.88 -88.56,-384.94 -109.14,-572.33 -20.58,-187.39 -28.87,-347.94 2.04,-475.62 30.9,-127.69 100.85,-222.36 175.02,-240.9 74.1,-18.54 152.33,39.12 259.44,135.9 107.03,96.78 242.93,232.61 341.75,349.97 98.82,117.36 160.63,216.25 183.31,348.01 22.61,131.76 6.11,296.53 12.29,461.22 6.18,164.7 35.05,329.47 86.53,461.22 51.41,131.76 125.57,230.57 215.81,274.2 90.16,43.7 196.54,32.21 295.36,28.07 98.81,-4.07 190.15,-0.87 194.65,-44.57 4.43,-43.63 -77.88,-134.16 -139.61,-230.94 -61.81,-96.78 -103.04,-199.74 -127.69,-321.25 -24.72,-121.43 -32.94,-261.48 -34.98,-378.83 -2.11,-117.36 2.04,-212.04 67.91,-210 65.88,2.04 193.49,100.93 292.38,210 98.82,109.14 168.84,228.61 216.25,354.19 47.33,125.58 71.98,257.33 136.26,295.87 64.28,38.54 168.19,-16.07 221.27,-43.41 53.08,-27.34 55.48,-27.34 96.2,-26.76 40.72,0.58 119.76,1.67 149.06,-57.44 29.23,-59.11 8.65,-178.58 6.62,-258.86 -2.04,-80.28 14.4,-121.5 78.24,-135.9 63.84,-14.4 175.02,-2.11 247.08,41.15 72.06,43.26 105,117.36 164.7,156.48 59.7,39.12 146.23,43.26 193.56,6.18 47.34,-37.08 55.63,-115.32 113.29,-166.81 57.59,-51.48 164.7,-76.13 265.62,-100.85 100.85,-24.72 195.53,-49.37 242.94,-94.67 47.34,-45.3 47.34,-111.25 -28.87,-148.34 -76.2,-37.01 -228.54,-45.3 -463.26,-39.12 -234.79,6.18 -551.82,26.83 -747.42,26.83 -195.6,0 -269.77,-20.65 -356.22,-55.63 -86.46,-34.98 -185.28,-84.42 -249.12,-131.76 -63.84,-47.34 -92.64,-92.64 -152.33,-135.9 -59.77,-43.19 -150.37,-84.42 -236.83,-119.47 -86.53,-34.98 -168.84,-63.77 -290.35,-139.97 -121.5,-76.2 -282.06,-199.74 -393.24,-290.35 -111.18,-90.6 -172.98,-148.19 -214.14,-210 -41.16,-61.74 -61.81,-127.61 -53.52,-185.28 8.22,-57.66 45.3,-107.04 133.87,-107.04 88.49,0 228.54,49.37 366.48,84.35 137.94,35.05 273.84,55.63 370.62,100.93 96.78,45.3 154.37,115.25 214.14,195.53 59.7,80.35 121.43,170.95 249.11,251.22 127.69,80.35 321.18,150.3 500.34,222.36 179.09,72.13 343.86,146.23 512.7,197.71 168.84,51.48 341.75,80.35 419.99,53.52 78.24,-26.76 61.81,-109.07 -22.61,-183.24 -84.42,-74.09 -236.83,-140.05 -391.2,-208.04 -154.44,-67.91 -310.93,-137.87 -426.17,-191.45 -115.33,-53.52 -189.49,-90.53 -247.08,-131.76 -57.66,-41.15 -98.89,-86.46 -129.72,-127.69 -30.91,-41.15 -51.56,-78.17 -14.47,-100.85 37.08,-22.61 131.76,-30.9 249.11,-10.32 117.36,20.65 257.41,70.02 399.49,127.69 142.01,57.66 286.2,123.54 448.86,162.66 162.66,39.12 343.79,51.48 514.74,67.91 170.87,16.5 331.43,37.16 474.09,137.65 142.67,100.56 267.44,281.11 364.22,252.24 96.78,-28.8 165.57,-267 275.66,-369.46 110.02,-102.45 261.19,-69.22 368.29,-166.01 107.04,-96.78 169.93,-323.5 268.24,-358.84 98.24,-35.27 231.89,120.99 352.44,157.93 120.56,36.94 228.1,-45.37 124.19,-181.13 -103.91,-135.76 -419.12,-324.96 -595.3,-421.67 -176.19,-96.64 -213.2,-100.71 -283.22,-61.59 -70.02,39.12 -172.91,121.43 -300.6,185.28 -127.69,63.84 -280.02,109.14 -407.7,139.97 -127.69,30.91 -230.57,47.41 -376.73,59.7 -146.23,12.36 -335.65,20.65 -560.04,24.72 -224.47,4.15 -483.91,4.15 -675.37,-10.25 -191.53,-14.4 -315.07,-43.26 -442.68,-80.35 -127.69,-37.01 -259.51,-82.31 -405.67,-121.43 -146.22,-39.12 -306.78,-72.06 -479.69,-100.93 -172.98,-28.79 -358.33,-53.52 -537.43,-61.8 -179.17,-8.22 -352.08,0.07 -492.06,0.07 -140.05,0 -247.15,-8.29 -348.01,-26.83 -100.93,-18.47 -195.6,-47.34 -360.8,-110.45 -165.2,-63.11 -400.87,-160.48 -556.11,-315.72 -155.24,-155.24 -230.14,-368.22 -234.86,-645.48 -4.73,-277.19 60.64,-618.65 -8.51,-772.29 -69.22,-153.57 -272.89,-119.47 -533.28,-102.38 -260.46,17.09 -577.49,17.09 -845.15,12.94 -267.73,-4.07 -485.94,-12.36 -636.24,-25.52 -150.37,-13.09 -232.76,-31.12 -267.73,42.98 -35.05,74.17 -22.61,240.46 -13.02,412.87 9.53,172.41 16.29,350.92 18.76,558.73 2.47,207.81 0.58,445.01 -146.88,576.04 -147.54,131.03 -440.72,156.04 -651.15,184.98 -210.43,28.94 -338.04,61.88 -521.28,84.49 -183.31,22.69 -422.1,35.05 -681.54,55.63 -259.44,20.58 -539.46,49.44 -790.61,86.46 -251.22,37.08 -473.66,82.39 -689.83,121.5 -216.18,39.12 -426.17,72.06 -623.81,96.78 -197.71,24.72 -382.98,41.15 -578.58,47.33 -195.67,6.18 -401.52,2.11 -595.09,-2.04 -193.56,-4.15 -374.69,-8.22 -576.4,26.11 -201.78,34.39 -424.14,107.18 -643.74,179.09 -219.59,71.99 -436.5,143.1 -243.66,167.9 192.76,24.87 795.27,3.42 946.87,114.45z"/>
   <path class="fil5 str1" d="M12650.33 30476.26c116.78,79.84 -271.51,373.46 -372.22,470.82 -100.78,97.44 85.87,-1.24 237.48,-79.55 151.61,-78.31 268.09,-136.26 363.42,-183.75 95.26,-47.48 169.43,-84.56 292.96,-119.61 123.54,-34.97 296.45,-67.91 450.9,-96.78 154.44,-28.8 290.27,-53.44 428.28,-71.99 137.94,-18.54 277.91,-30.9 415.93,-43.26 137.94,-12.36 273.84,-24.65 368.58,-10.25 94.67,14.4 148.19,55.63 158.52,98.82 10.25,43.26 -22.69,88.49 -102.96,133.79 -80.35,45.3 -207.96,90.6 -339.72,129.72 -131.83,39.12 -267.66,72.06 -438.54,109.07 -170.95,37.08 -376.8,78.31 -635.59,145.35 -258.79,67.11 -570.44,160.11 -638.14,252.39 -67.77,92.35 108.49,183.96 305.47,182.73 196.98,-1.16 414.83,-95.18 614.35,-164.84 199.46,-69.66 380.59,-114.96 578.29,-174.66 197.64,-59.7 411.78,-133.87 590.94,-218.29 179.09,-84.42 323.21,-179.09 452.93,-271.8 129.72,-92.63 244.97,-183.17 374.69,-253.19 129.72,-70.02 273.91,-119.39 391.27,-146.22 117.36,-26.76 207.96,-30.83 288.31,-20.58 80.28,10.33 150.22,34.98 166.73,84.42 16.43,49.44 -20.58,123.54 -102.96,201.78 -82.39,78.31 -210,160.63 -349.97,247.08 -140.05,86.53 -292.46,177.06 -442.76,259.44 -150.3,82.38 -298.56,156.48 -422.1,228.54 -123.54,72.13 -222.36,142.08 -341.75,187.38 -119.47,45.3 -259.44,65.88 -461.22,72.06 -201.78,6.18 -465.37,-2.11 -617.7,6.11 -152.33,8.29 -193.56,33.01 -207.96,84.5 -14.4,51.48 -2.11,129.72 82.31,168.84 84.42,39.12 240.97,39.12 331.57,88.49 90.6,49.44 115.25,148.34 144.41,203.53 29.16,55.26 62.82,66.97 114.31,36.06 51.41,-30.9 120.78,-104.34 188.4,-141.06 67.55,-36.72 133.5,-36.72 184.98,2.4 51.48,39.12 88.49,117.36 88.49,187.38 0,70.02 -37.01,131.76 4.15,133.79 41.16,2.11 160.63,-55.55 267.73,-158.52 107.04,-102.96 201.71,-251.15 319.07,-376.8 117.36,-125.58 257.41,-228.54 358.33,-284.17 100.85,-55.56 162.59,-63.84 214.07,-16.51 51.48,47.41 92.71,150.37 100.93,249.19 8.22,98.89 -16.5,193.57 -47.41,302.71 -30.9,109.14 -67.91,232.68 -123.47,343.86 -55.63,111.18 -129.79,210 -158.73,261.41 -28.94,51.41 -12.72,55.41 61.95,-13.31 74.6,-68.71 207.74,-210.22 266.28,-186.37 58.54,23.93 42.61,213.05 35.92,292.09 -6.76,79.04 -4.15,47.92 21.81,7.64 25.96,-40.28 75.4,-89.66 108.34,-190.58 32.94,-100.85 49.37,-253.26 63.84,-432.43 14.4,-179.09 26.76,-384.94 43.26,-545.57 16.43,-160.62 37.01,-275.95 74.09,-362.48 37.01,-86.46 90.6,-144.04 160.63,-203.81 69.95,-59.7 156.48,-121.43 228.54,-183.24 72.06,-61.73 129.65,-123.54 187.31,-158.52 57.66,-34.97 115.32,-43.26 170.95,-6.18 55.55,37.09 109.14,119.4 121.5,216.18 12.29,96.78 -16.51,207.96 -24.72,366.48 -8.29,158.59 4.07,364.44 4.07,525.06 0,160.63 -12.36,275.87 -70.02,368.51 -57.66,92.71 -160.55,162.73 -207.89,226.57 -47.41,63.84 -39.12,121.43 -82.38,183.17 -43.27,61.81 -137.94,127.76 -214.14,197.71 -76.2,70.02 -133.87,144.19 -141.57,180.77 -7.78,36.57 34.39,35.7 94.74,36.21 60.28,0.51 138.67,2.47 197.93,-42.1 59.26,-44.5 99.25,-135.54 147.75,-128.2 48.5,7.42 105.44,113.15 150.88,188.33 45.37,75.26 79.33,119.91 117.5,42.39 38.18,-77.51 80.64,-277.26 157.86,-270.2 77.15,7.13 189.06,220.9 267.07,332.23 78.02,111.32 122.09,120.19 127.18,62.31 5.02,-57.88 -29.08,-182.44 -62.53,-271.51 -33.52,-89 -66.46,-142.59 -64.35,-204.4 2.04,-61.74 39.05,-131.69 59.7,-234.65 20.57,-102.96 24.65,-238.86 49.44,-463.77 24.72,-224.83 70.17,-538.66 130.88,-716.08 60.65,-177.42 136.63,-218.5 180.48,-276.38 43.85,-57.81 55.56,-132.41 72.64,-241.63 17.02,-109.14 39.41,-252.75 34.69,-361.31 -4.8,-108.49 -36.8,-181.78 -50.68,-232.9 -13.89,-51.05 -9.82,-79.91 -8.73,2.47 1.02,82.38 -1.02,276.02 -5.38,437.52 -4.44,161.5 -11.2,290.85 -4.65,329.1 6.54,38.25 26.32,-14.61 65.73,0.94 39.41,15.56 98.38,99.62 92.85,252.83 -5.53,153.2 -75.48,375.64 -102.24,532.12 -26.83,156.48 -10.32,247.01 24.65,314.92 34.98,67.99 88.57,113.29 144.19,142.08 55.55,28.87 113.21,41.23 146.15,-26.76 32.94,-67.91 41.16,-216.11 61.73,-341.75 20.58,-125.58 53.59,-228.54 88.64,-323.29 34.98,-94.67 71.99,-181.2 115.25,-224.46 43.19,-43.19 92.64,-43.19 154.44,0 61.73,43.26 135.83,129.79 181.13,228.61 45.3,98.82 61.81,210 -111.18,463.26 -172.98,253.26 -535.31,648.6 -716.52,868.93 -181.2,220.32 -181.2,265.62 -171.24,319.5 9.96,53.88 29.81,116.27 81.3,122.45 51.48,6.18 134.59,-43.92 285.26,-186.36 150.59,-142.37 368.87,-377.09 521.21,-510.96 152.33,-133.79 238.87,-166.73 286.2,-123.54 47.34,43.26 55.63,162.73 47.41,290.35 -8.29,127.69 -32.94,263.59 -76.42,369.67 -43.48,106.09 -105.8,182.3 -102.38,205.13 3.35,22.83 72.35,-7.71 151.39,-144.41 78.97,-136.7 168.04,-379.56 226.65,-370.11 58.61,9.45 86.82,271.15 113.07,406.76 26.25,135.68 50.46,145.21 60.57,57.3 10.04,-87.83 5.96,-273.11 20.36,-474.89 14.4,-201.78 47.33,-420.07 107.04,-496.27 59.7,-76.13 146.22,-10.25 193.85,91.26 47.63,101.58 56.5,238.87 97.65,389.16 41.15,150.3 114.74,313.69 151.02,391.42 36.29,77.81 35.34,69.88 47.92,65.22 12.58,-4.65 38.68,-6.18 65.37,-22.47 26.61,-16.29 53.81,-47.33 108.92,-85.87 55.05,-38.46 137.94,-84.42 187.96,-51.84 50.03,32.57 67.04,143.68 106.38,171.31 39.26,27.7 100.78,-28 141.06,-160.77 40.28,-132.78 59.41,-342.56 189.28,-337.39 129.79,5.24 370.4,225.41 513.36,281.98 142.95,56.65 188.26,-50.46 258.06,-72.35 69.73,-21.89 164.04,41.37 228.83,79.48 64.79,38.1 100.13,51.12 139.46,33.89 39.34,-17.24 82.75,-64.64 44.72,-172.77 -38.03,-108.13 -157.5,-276.97 -256.31,-425.23 -98.81,-148.26 -177.06,-275.88 -232.61,-446.83 -55.63,-170.88 -88.56,-384.94 -109.14,-572.33 -20.58,-187.39 -28.87,-347.94 2.04,-475.62 30.9,-127.69 100.85,-222.36 175.02,-240.9 74.1,-18.54 152.33,39.12 259.44,135.9 107.03,96.78 242.93,232.61 341.75,349.97 98.82,117.36 160.63,216.25 183.31,348.01 22.61,131.76 6.11,296.53 12.29,461.22 6.18,164.7 35.05,329.47 86.53,461.22 51.41,131.76 125.57,230.57 215.81,274.2 90.16,43.7 196.54,32.21 295.36,28.07 98.81,-4.07 190.15,-0.87 194.65,-44.57 4.43,-43.63 -77.88,-134.16 -139.61,-230.94 -61.81,-96.78 -103.04,-199.74 -127.69,-321.25 -24.72,-121.43 -32.94,-261.48 -34.98,-378.83 -2.11,-117.36 2.04,-212.04 67.91,-210 65.88,2.04 193.49,100.93 292.38,210 98.82,109.14 168.84,228.61 216.25,354.19 47.33,125.58 71.98,257.33 136.26,295.87 64.28,38.54 168.19,-16.07 221.27,-43.41 53.08,-27.34 55.48,-27.34 96.2,-26.76 40.72,0.58 119.76,1.67 149.06,-57.44 29.23,-59.11 8.65,-178.58 6.62,-258.86 -2.04,-80.28 14.4,-121.5 78.24,-135.9 63.84,-14.4 175.02,-2.11 247.08,41.15 72.06,43.26 105,117.36 164.7,156.48 59.7,39.12 146.23,43.26 193.56,6.18 47.34,-37.08 55.63,-115.32 113.29,-166.81 57.59,-51.48 164.7,-76.13 265.62,-100.85 100.85,-24.72 195.53,-49.37 242.94,-94.67 47.34,-45.3 47.34,-111.25 -28.87,-148.34 -76.2,-37.01 -228.54,-45.3 -463.26,-39.12 -234.79,6.18 -551.82,26.83 -747.42,26.83 -195.6,0 -269.77,-20.65 -356.22,-55.63 -86.46,-34.98 -185.28,-84.42 -249.12,-131.76 -63.84,-47.34 -92.64,-92.64 -152.33,-135.9 -59.77,-43.19 -150.37,-84.42 -236.83,-119.47 -86.53,-34.98 -168.84,-63.77 -290.35,-139.97 -121.5,-76.2 -282.06,-199.74 -393.24,-290.35 -111.18,-90.6 -172.98,-148.19 -214.14,-210 -41.16,-61.74 -61.81,-127.61 -53.52,-185.28 8.22,-57.66 45.3,-107.04 133.87,-107.04 88.49,0 228.54,49.37 366.48,84.35 137.94,35.05 273.84,55.63 370.62,100.93 96.78,45.3 154.37,115.25 214.14,195.53 59.7,80.35 121.43,170.95 249.11,251.22 127.69,80.35 321.18,150.3 500.34,222.36 179.09,72.13 343.86,146.23 512.7,197.71 168.84,51.48 341.75,80.35 419.99,53.52 78.24,-26.76 61.81,-109.07 -22.61,-183.24 -84.42,-74.09 -236.83,-140.05 -391.2,-208.04 -154.44,-67.91 -310.93,-137.87 -426.17,-191.45 -115.33,-53.52 -189.49,-90.53 -247.08,-131.76 -57.66,-41.15 -98.89,-86.46 -129.72,-127.69 -30.91,-41.15 -51.56,-78.17 -14.47,-100.85 37.08,-22.61 131.76,-30.9 249.11,-10.32 117.36,20.65 257.41,70.02 399.49,127.69 142.01,57.66 286.2,123.54 448.86,162.66 162.66,39.12 343.79,51.48 514.74,67.91 170.87,16.5 331.43,37.16 474.09,137.65 142.67,100.56 267.44,281.11 364.22,252.24 96.78,-28.8 165.57,-267 275.66,-369.46 110.02,-102.45 261.19,-69.22 482.02,-91.62 220.83,-22.39 511.18,-100.42 823.19,-225.92 311.94,-125.5 645.48,-298.41 847.26,-426.76 201.78,-128.34 271.73,-212.1 -45.81,-257.62 -317.61,-45.52 -1022.72,-52.94 -1393.85,-58.68 -371.13,-5.74 -408.14,-9.81 -478.17,29.3 -70.02,39.12 -172.91,121.43 -300.6,185.28 -127.69,63.84 -280.02,109.14 -407.7,139.97 -127.69,30.91 -230.57,47.41 -376.73,59.7 -146.23,12.36 -335.65,20.65 -560.04,24.72 -224.47,4.15 -483.91,4.15 -675.37,-10.25 -191.53,-14.4 -315.07,-43.26 -442.68,-80.35 -127.69,-37.01 -259.51,-82.31 -405.67,-121.43 -146.22,-39.12 -306.78,-72.06 -479.69,-100.93 -172.98,-28.79 -358.33,-53.52 -537.43,-61.8 -179.17,-8.22 -352.08,0.07 -492.06,0.07 -140.05,0 -247.15,-8.29 -348.01,-26.83 -100.93,-18.47 -195.6,-47.34 -360.8,-110.45 -165.2,-63.11 -400.87,-160.48 -523.25,-313.39 -122.45,-152.92 -131.54,-361.24 -143.83,-542.3 -12.36,-180.98 -27.78,-334.56 -38.61,-472.42 -10.91,-137.86 -17.09,-259.88 -16.43,-353.46 0.65,-93.51 8.29,-158.44 -52.21,-181.71 -60.5,-23.27 -188.98,-4.87 -283.94,9.52 -95.04,14.4 -156.41,24.65 -345.68,29.81 -189.28,5.17 -506.31,5.17 -773.96,1.02 -267.73,-4.07 -485.94,-12.36 -636.24,-25.52 -150.37,-13.09 -232.76,-31.12 -267.73,42.98 -35.05,74.17 -22.61,240.46 -15.12,415.63 7.42,175.24 9.89,359.28 7.93,487.25 -2.04,128.05 -8.51,200.04 -15.78,269.91 -7.27,69.88 -15.2,137.65 -28.28,206.8 -13.16,69.22 -31.34,139.76 -169.5,198.14 -138.16,58.39 -396.22,104.64 -589.06,144.19 -192.91,39.63 -320.52,72.57 -503.76,95.18 -183.31,22.69 -422.1,35.05 -681.54,55.63 -259.44,20.58 -539.46,49.44 -790.61,86.46 -251.22,37.08 -473.66,82.39 -689.83,121.5 -216.18,39.12 -426.17,72.06 -623.81,96.78 -197.71,24.72 -382.98,41.15 -578.58,47.33 -195.67,6.18 -401.52,2.11 -595.09,-2.04 -193.56,-4.15 -374.69,-8.22 -599.52,-13.81 -224.83,-5.53 -493.21,-12.51 -834.09,-80.71 -340.96,-68.2 -754.41,-197.63 -1118.85,-314.12 -364.44,-116.49 -679.94,-219.96 -758.76,-199.09 -78.89,20.94 78.89,166.3 166.51,253.63 87.62,87.4 105.15,116.85 219.16,221.85 113.94,105 324.44,285.62 506.23,446.39 181.78,160.84 334.84,301.91 722.26,305.4 387.42,3.56 1009.26,-130.45 1126.04,-50.68z"/>
   <path class="fil1" d="M19796.15 5950.67c7601.26,69.86 13706.63,6288.49 13636.78,13889.75 -36,3917.52 -1705.26,7437.67 -4355.22,9919.96l-657.04 -6.04c2768.27,-2414.53 4531.59,-5955.91 4568.01,-9918 67.6,-7355.91 -5840.71,-13373.82 -13196.61,-13441.42 -7355.87,-67.6 -13373.79,5840.7 -13441.39,13196.61 -36.41,3962.09 1661.56,7535.28 4384.96,10000.28l-657.04 -6.04c-2603.89,-2530.58 -4208.17,-6080.81 -4172.17,-9998.33 69.86,-7601.26 6288.49,-13706.63 13889.72,-13636.78z"/>
   <path class="fil5 str1" d="M18498.15 27527.09c29.96,-142.89 90.36,-401.15 129.63,-490.19 39.24,-89.04 57.36,-8.81 71.6,64.92 14.24,73.76 24.56,141 40.12,192.76 15.52,51.76 36.2,87.96 85.37,29.72 49.16,-58.2 126.8,-210.85 170.8,-245.8 43.96,-34.92 54.32,47.88 67.28,113.84 12.92,66 28.44,115.16 45.28,151.36 16.8,36.24 34.89,59.55 87.93,-14.2 53.04,-73.72 141.04,-244.52 194.08,-360.96 53.04,-116.41 71.16,-178.52 86.68,-166.88 15.52,11.67 28.48,97.04 34.96,163 6.44,66 6.44,112.59 11.64,168.2 5.16,55.64 15.49,120.32 27.16,183.72 11.64,63.4 24.56,125.48 44,174.65 19.4,49.16 45.25,85.4 82.77,29.76 37.52,-55.64 86.68,-203.12 115.12,-297.56 28.48,-94.44 36.27,-135.84 47.91,-182.44 11.64,-46.56 27.16,-98.29 45.25,-91.84 18.12,6.48 38.83,71.16 49.16,103.48 10.36,32.36 10.36,32.36 14.24,55.64 3.88,23.28 11.67,69.88 29.76,124.2 18.12,54.35 46.59,116.44 71.16,164.32 24.59,47.88 45.28,81.52 76.89,122.04 31.61,40.56 74.09,88 112.9,84.11 38.83,-3.88 73.96,-59.11 91.5,-119.07 17.58,-59.92 17.58,-124.6 43.46,-224.24 25.88,-99.6 77.6,-234.13 109.93,-318.24 32.36,-84.08 45.31,-117.72 63.4,-106.08 18.12,11.64 41.43,68.56 59.52,128.08 18.12,59.52 31.08,121.6 44,173.36 12.92,51.76 25.88,93.16 33.64,139.72 7.76,46.6 10.33,98.32 19.37,144.89 9.07,46.59 24.63,88 41.91,121.37 17.31,33.4 36.37,58.74 55.23,38.97 18.86,-19.74 37.56,-84.59 45.99,-81.99 8.44,2.6 6.68,72.71 6.04,135.43 -0.64,62.72 -0.13,118.06 0.1,145.73 0.27,27.7 0.27,27.7 -351.75,39.07 -352.02,11.37 -1056.06,34.08 -1453.15,47.61 -397.13,13.56 -487.28,17.92 -532.8,-7.39 -45.52,-25.27 -46.36,-80.24 -47,-121.47 -0.64,-41.2 -1.04,-68.7 28.95,-211.59z"/>
  </g>
 </g>
</svg>
